<svg width="1310" height="584" viewBox="0 0 1310 584" fill="none" xmlns="http://www.w3.org/2000/svg">
<path d="M757.705 504.124L757.777 503.127L757.765 503.126L757.753 503.125L757.705 504.124ZM315.405 369.93L314.725 370.663L314.761 370.695L314.799 370.725L315.405 369.93ZM35.5202 145.018L35.9876 144.134L35.9813 144.131L35.5202 145.018ZM-524.083 1.9613C-524.633 2.00709 -525.042 2.49037 -524.996 3.04076C-524.95 3.59115 -524.467 4.0002 -523.917 3.95439L-524.083 1.9613ZM-523.917 3.95439C-522.262 3.81677 -520.604 3.68761 -518.941 3.56685L-519.086 1.57212C-520.755 1.69337 -522.421 1.82304 -524.083 1.9613L-523.917 3.95439ZM-508.914 2.94233C-505.588 2.76889 -502.247 2.62762 -498.891 2.5177L-498.957 0.518793C-502.325 0.629085 -505.679 0.770916 -509.019 0.945031L-508.914 2.94233ZM-488.837 2.28219C-485.507 2.23471 -482.165 2.21687 -478.81 2.22794L-478.803 0.227956C-482.17 0.21686 -485.524 0.234736 -488.865 0.282387L-488.837 2.28219ZM-468.746 2.34636C-465.417 2.41333 -462.076 2.50763 -458.726 2.62857L-458.654 0.629873C-462.014 0.508554 -465.366 0.41394 -468.706 0.346778L-468.746 2.34636ZM-448.667 3.06957C-445.34 3.24082 -442.004 3.43737 -438.66 3.65851L-438.528 1.66287C-441.882 1.4411 -445.227 1.24396 -448.564 1.0722L-448.667 3.06957ZM-428.618 4.39412C-425.295 4.66085 -421.965 4.95099 -418.629 5.26384L-418.442 3.27259C-421.787 2.95891 -425.126 2.66799 -428.458 2.40053L-428.618 4.39412ZM-408.611 6.26928C-405.294 6.62377 -401.971 6.9999 -398.645 7.39708L-398.408 5.41118C-401.742 5.01306 -405.073 4.63597 -408.399 4.28063L-408.611 6.26928ZM-388.657 8.65052C-385.347 9.08594 -382.033 9.54147 -378.716 10.0164L-378.433 8.03665C-381.757 7.56059 -385.078 7.10403 -388.396 6.6676L-388.657 8.65052ZM-368.763 11.4986C-365.46 12.009 -362.156 12.538 -358.85 13.0851L-358.523 11.1119C-361.836 10.5638 -365.148 10.0336 -368.458 9.52203L-368.763 11.4986ZM-348.934 14.7789C-345.64 15.3592 -342.345 15.9566 -339.051 16.5707L-338.684 14.6045C-341.985 13.9893 -345.286 13.3906 -348.587 12.8093L-348.934 14.7789ZM-329.174 18.4614C-325.889 19.1067 -322.604 19.7679 -319.322 20.4445L-318.919 18.4857C-322.207 17.8079 -325.497 17.1454 -328.789 16.4989L-329.174 18.4614ZM-309.486 22.519C-306.21 23.2253 -302.937 23.9463 -299.668 24.6814L-299.229 22.7301C-302.504 21.9938 -305.783 21.2715 -309.064 20.5639L-309.486 22.519ZM-289.872 26.9282C-286.606 27.6918 -283.345 28.469 -280.089 29.259L-279.617 27.3154C-282.878 26.5241 -286.145 25.7457 -289.416 24.9807L-289.872 26.9282ZM-270.333 31.668C-267.078 32.4858 -263.829 33.316 -260.586 34.1578L-260.084 32.222C-263.331 31.3789 -266.585 30.5474 -269.846 29.7283L-270.333 31.668ZM-250.872 36.7201C-247.627 37.5893 -244.39 38.4696 -241.162 39.3605L-240.63 37.4326C-243.863 36.5404 -247.105 35.6587 -250.355 34.7882L-250.872 36.7201ZM-231.489 42.0683C-228.255 42.9863 -225.031 43.9144 -221.817 44.8519L-221.257 42.9319C-224.475 41.9931 -227.704 41.0636 -230.943 40.1443L-231.489 42.0683ZM-212.186 47.6982C-208.962 48.663 -205.751 49.6369 -202.551 50.619L-201.964 48.707C-205.168 47.7236 -208.384 46.7484 -211.612 45.7822L-212.186 47.6982ZM-192.963 53.5974C-189.75 54.6075 -186.55 55.6253 -183.365 56.6503L-182.752 54.7464C-185.942 53.7201 -189.146 52.7009 -192.363 51.6895L-192.963 53.5974ZM-173.823 59.7552C-170.62 60.8092 -167.432 61.8699 -164.26 62.9364L-163.623 61.0407C-166.798 59.9728 -169.99 58.9108 -173.198 57.8554L-173.823 59.7552ZM-154.768 66.1622C-151.573 67.2594 -148.396 68.362 -145.237 69.4691L-144.576 67.5817C-147.738 66.4732 -150.919 65.3693 -154.118 64.2706L-154.768 66.1622ZM-135.8 72.8106C-132.612 73.9507 -129.445 75.0947 -126.299 76.242L-125.614 74.363C-128.764 73.2144 -131.935 72.0689 -135.127 70.9274L-135.8 72.8106ZM-116.898 79.7037C-113.725 80.8835 -110.575 82.0658 -107.45 83.2496L-106.742 81.3793C-109.87 80.194 -113.024 79.0103 -116.201 77.8291L-116.898 79.7037ZM-98.0755 86.8344C-94.9214 88.0517 -91.7948 89.2697 -88.6969 90.4875L-87.9653 88.6262C-91.067 87.4069 -94.1974 86.1874 -97.3554 84.9686L-98.0755 86.8344ZM-79.3417 94.1989C-76.2129 95.4515 -73.1159 96.7028 -70.0519 97.9518L-69.2969 96.0997C-72.3648 94.8491 -75.4657 93.5963 -78.5983 92.3422L-79.3417 94.1989ZM-60.7091 101.795C-57.5937 103.088 -54.5154 104.378 -51.4758 105.663L-50.6971 103.821C-53.7407 102.534 -56.8229 101.243 -59.9423 99.9479L-60.7091 101.795ZM-42.1998 109.62C-39.076 110.965 -35.9968 112.303 -32.9641 113.633L-32.1608 111.802C-35.1976 110.47 -38.2809 109.13 -41.4089 107.783L-42.1998 109.62ZM-23.8356 117.675C-20.7061 119.074 -17.6314 120.462 -14.6135 121.837L-13.784 120.017C-16.8064 118.64 -19.8856 117.25 -23.0195 115.849L-23.8356 117.675ZM-5.46632 126.049C-2.37988 127.485 0.639736 128.905 3.58996 130.306L4.44828 128.5C1.49304 127.096 -1.53145 125.674 -4.62282 124.236L-5.46632 126.049ZM12.6387 134.654C15.7503 136.167 18.7732 137.654 21.7038 139.114L22.5956 137.324C19.659 135.861 16.6303 134.371 13.513 132.855L12.6387 134.654ZM30.6938 143.654C32.1774 144.414 33.6326 145.164 35.059 145.906L35.9813 144.131C34.5513 143.388 33.0924 142.635 31.6054 141.874L30.6938 143.654ZM35.0527 145.902C36.4566 146.645 37.8927 147.425 39.3597 148.243L40.333 146.495C38.8542 145.672 37.4053 144.884 35.9876 144.134L35.0527 145.902ZM48.0033 153.265C50.7503 154.921 53.5824 156.68 56.4928 158.536L57.5681 156.85C54.6451 154.986 51.7986 153.217 49.0358 151.552L48.0033 153.265ZM64.8347 163.975C67.5337 165.771 70.2885 167.637 73.0944 169.569L74.2284 167.922C71.4146 165.984 68.6511 164.112 65.9427 162.31L64.8347 163.975ZM81.2819 175.287C83.9474 177.174 86.652 179.112 89.3918 181.097L90.5653 179.477C87.8198 177.488 85.1093 175.546 82.4374 173.654L81.2819 175.287ZM97.4331 186.984C100.071 188.933 102.737 190.922 105.427 192.946L106.629 191.347C103.935 189.32 101.264 187.329 98.622 185.375L97.4331 186.984ZM113.381 198.976C116.001 200.978 118.641 203.009 121.298 205.067L122.523 203.486C119.862 201.425 117.219 199.391 114.595 197.387L113.381 198.976ZM129.184 211.212C131.789 213.255 134.408 215.321 137.038 217.406L138.28 215.839C135.648 213.751 133.026 211.684 130.418 209.639L129.184 211.212ZM144.836 223.622C147.421 225.693 150.014 227.781 152.612 229.882L153.87 228.327C151.269 226.224 148.674 224.134 146.086 222.061L144.836 223.622ZM160.367 236.182C162.942 238.283 165.519 240.395 168.098 242.516L169.368 240.972C166.788 238.849 164.208 236.735 161.632 234.633L160.367 236.182ZM175.799 248.876C178.361 250.999 180.921 253.13 183.477 255.264L184.759 253.729C182.201 251.593 179.639 249.461 177.076 247.336L175.799 248.876ZM191.136 261.681C193.688 263.827 196.234 265.974 198.772 268.122L200.064 266.595C197.524 264.446 194.976 262.297 192.423 260.15L191.136 261.681ZM206.382 274.582C208.927 276.749 211.461 278.914 213.984 281.075L215.285 279.556C212.761 277.394 210.225 275.228 207.678 273.059L206.382 274.582ZM221.566 287.589C224.102 289.774 226.623 291.952 229.126 294.121L230.436 292.609C227.931 290.439 225.409 288.26 222.872 286.074L221.566 287.589ZM236.66 300.666C239.187 302.868 241.693 305.057 244.175 307.231L245.493 305.726C243.009 303.551 240.502 301.361 237.974 299.158L236.66 300.666ZM251.694 313.833C254.223 316.06 256.723 318.267 259.192 320.453L260.517 318.955C258.047 316.769 255.546 314.56 253.015 312.332L251.694 313.833ZM266.667 327.087C269.191 329.333 271.677 331.551 274.122 333.738L275.455 332.248C273.009 330.06 270.522 327.84 267.997 325.593L266.667 327.087ZM281.555 340.407C284.08 342.678 286.553 344.909 288.97 347.096L290.312 345.613C287.893 343.425 285.419 341.192 282.893 338.92L281.555 340.407ZM296.369 353.81C298.905 356.118 301.368 358.367 303.751 360.552L305.103 359.077C302.717 356.891 300.253 354.641 297.715 352.331L296.369 353.81ZM311.114 367.322C312.344 368.458 313.549 369.572 314.725 370.663L316.085 369.196C314.907 368.104 313.702 366.989 312.47 365.852L311.114 367.322ZM314.799 370.725C316.141 371.749 317.494 372.766 318.857 373.775L320.047 372.168C318.692 371.164 317.346 370.153 316.012 369.135L314.799 370.725ZM327.154 379.747C329.922 381.683 332.727 383.592 335.569 385.473L336.673 383.806C333.845 381.933 331.054 380.034 328.301 378.108L327.154 379.747ZM344.139 391C347.012 392.804 349.917 394.582 352.854 396.334L353.879 394.617C350.955 392.872 348.062 391.102 345.203 389.306L344.139 391ZM361.647 401.453C364.592 403.126 367.565 404.774 370.564 406.398L371.517 404.639C368.529 403.022 365.568 401.38 362.635 399.714L361.647 401.453ZM379.586 411.17C382.591 412.723 385.62 414.253 388.671 415.76L389.556 413.967C386.516 412.465 383.498 410.941 380.504 409.394L379.586 411.17ZM397.853 420.195C400.917 421.643 404.002 423.069 407.105 424.473L407.929 422.651C404.836 421.251 401.762 419.83 398.707 418.387L397.853 420.195ZM416.416 428.597C419.529 429.947 422.658 431.276 425.802 432.583L426.57 430.736C423.435 429.433 420.315 428.108 417.212 426.762L416.416 428.597ZM435.234 436.426C438.384 437.683 441.548 438.92 444.722 440.137L445.438 438.269C442.272 437.056 439.117 435.822 435.975 434.568L435.234 436.426ZM454.263 443.721C457.447 444.894 460.64 446.046 463.842 447.179L464.509 445.294C461.315 444.164 458.13 443.014 454.954 441.844L454.263 443.721ZM473.467 450.519C476.682 451.613 479.903 452.688 483.128 453.743L483.75 451.842C480.532 450.789 477.318 449.717 474.111 448.626L473.467 450.519ZM492.83 456.856C496.07 457.876 499.314 458.877 502.558 459.859L503.138 457.945C499.9 456.965 496.663 455.966 493.43 454.949L492.83 456.856ZM512.326 462.759C515.592 463.71 518.858 464.643 522.122 465.557L522.661 463.631C519.403 462.719 516.144 461.788 512.885 460.839L512.326 462.759ZM531.932 468.251C535.223 469.137 538.51 470.005 541.792 470.855L542.293 468.919C539.017 468.071 535.737 467.204 532.452 466.32L531.932 468.251ZM551.659 473.359C554.963 474.181 558.26 474.985 561.548 475.771L562.013 473.826C558.731 473.041 555.44 472.239 552.142 471.419L551.659 473.359ZM571.477 478.096C574.796 478.858 578.104 479.601 581.4 480.327L581.83 478.374C578.54 477.649 575.237 476.907 571.924 476.147L571.477 478.096ZM591.358 482.473C594.702 483.179 598.032 483.866 601.344 484.535L601.74 482.574C598.433 481.906 595.11 481.22 591.771 480.516L591.358 482.473ZM611.317 486.505C614.674 487.153 618.012 487.783 621.327 488.394L621.69 486.428C618.38 485.817 615.048 485.188 611.696 484.541L611.317 486.505ZM631.367 490.202C634.735 490.794 638.076 491.367 641.39 491.921L641.72 489.948C638.412 489.395 635.075 488.823 631.713 488.233L631.367 490.202ZM651.423 493.554C654.822 494.093 658.188 494.612 661.519 495.112L661.815 493.134C658.49 492.635 655.13 492.117 651.736 491.579L651.423 493.554ZM671.601 496.579C674.999 497.059 678.356 497.517 681.667 497.955L681.929 495.973C678.624 495.535 675.273 495.077 671.88 494.598L671.601 496.579ZM691.747 499.244C695.185 499.668 698.569 500.069 701.894 500.447L702.12 498.46C698.801 498.082 695.424 497.682 691.991 497.259L691.747 499.244ZM712.036 501.553C715.492 501.912 718.874 502.246 722.178 502.555L722.365 500.564C719.067 500.255 715.692 499.922 712.243 499.563L712.036 501.553ZM732.326 503.449C735.816 503.737 739.205 503.995 742.485 504.224L742.625 502.229C739.353 502 735.972 501.743 732.49 501.456L732.326 503.449ZM752.66 504.864C754.362 504.959 756.028 505.045 757.658 505.123L757.753 503.125C756.129 503.048 754.468 502.962 752.771 502.868L752.66 504.864ZM757.633 505.121C759.232 505.237 760.852 505.355 762.493 505.475L762.64 503.481C760.998 503.36 759.377 503.242 757.777 503.127L757.633 505.121ZM772.508 506.222C775.737 506.467 779.034 506.72 782.398 506.982L782.553 504.988C779.188 504.726 775.889 504.473 772.659 504.228L772.508 506.222ZM792.315 507.764C795.598 508.025 798.937 508.295 802.328 508.572L802.491 506.578C799.099 506.301 795.759 506.032 792.474 505.77L792.315 507.764ZM812.197 509.386C815.471 509.659 818.787 509.939 822.145 510.225L822.315 508.232C818.956 507.946 815.638 507.666 812.364 507.393L812.197 509.386ZM832.098 511.08C835.363 511.363 838.663 511.653 841.995 511.947L842.172 509.955C838.838 509.66 835.537 509.371 832.271 509.088L832.098 511.08ZM851.992 512.839C855.252 513.133 858.54 513.431 861.855 513.735L862.038 511.743C858.722 511.44 855.432 511.141 852.171 510.847L851.992 512.839ZM871.83 514.657C875.102 514.962 878.397 515.271 881.713 515.586L881.902 513.595C878.585 513.28 875.288 512.97 872.016 512.665L871.83 514.657ZM891.667 516.537C894.948 516.853 898.248 517.174 901.565 517.499L901.76 515.508C898.442 515.183 895.141 514.863 891.859 514.546L891.667 516.537ZM911.505 518.48C914.792 518.808 918.094 519.139 921.41 519.475L921.611 517.485C918.294 517.149 914.991 516.818 911.703 516.49L911.505 518.48ZM931.34 520.488C934.631 520.826 937.933 521.168 941.246 521.515L941.454 519.525C938.14 519.179 934.836 518.837 931.545 518.498L931.34 520.488ZM951.17 522.56C954.463 522.91 957.765 523.264 961.074 523.621L961.289 521.632C957.979 521.275 954.675 520.921 951.381 520.571L951.17 522.56ZM970.993 524.7C974.288 525.062 977.59 525.427 980.895 525.796L981.117 523.808C977.81 523.44 974.508 523.074 971.211 522.712L970.993 524.7ZM990.808 526.911C994.105 527.285 997.406 527.663 1000.71 528.044L1000.94 526.057C997.634 525.676 994.332 525.298 991.034 524.924L990.808 526.911ZM1010.61 529.197C1013.91 529.584 1017.21 529.975 1020.51 530.369L1020.75 528.383C1017.45 527.989 1014.15 527.598 1010.85 527.21L1010.61 529.197ZM1030.41 531.561C1033.71 531.963 1037.01 532.367 1040.31 532.775L1040.55 530.79C1037.25 530.382 1033.95 529.977 1030.65 529.576L1030.41 531.561ZM1050.19 534.01C1053.5 534.427 1056.8 534.847 1060.09 535.27L1060.34 533.286C1057.05 532.863 1053.75 532.443 1050.44 532.026L1050.19 534.01ZM1069.96 536.551C1073.27 536.984 1076.57 537.421 1079.86 537.861L1080.12 535.878C1076.83 535.438 1073.53 535.001 1070.22 534.568L1069.96 536.551ZM1089.72 539.192C1093.03 539.643 1096.33 540.098 1099.62 540.556L1099.89 538.575C1096.6 538.117 1093.3 537.662 1089.99 537.21L1089.72 539.192ZM1109.46 541.942C1112.77 542.414 1116.07 542.889 1119.35 543.367L1119.64 541.388C1116.36 540.909 1113.06 540.434 1109.74 539.962L1109.46 541.942ZM1129.19 544.816C1132.5 545.31 1135.8 545.807 1139.07 546.307L1139.37 544.33C1136.1 543.829 1132.8 543.332 1129.49 542.838L1129.19 544.816ZM1148.9 547.827C1152.21 548.346 1155.5 548.868 1158.76 549.393L1159.08 547.418C1155.81 546.893 1152.52 546.37 1149.21 545.851L1148.9 547.827ZM1168.59 550.996C1171.9 551.543 1175.17 552.093 1178.42 552.646L1178.76 550.674C1175.51 550.121 1172.23 549.57 1168.92 549.023L1168.59 550.996ZM1188.26 554.347C1191.55 554.925 1194.8 555.507 1198.03 556.092L1198.38 554.124C1195.16 553.539 1191.9 552.956 1188.6 552.377L1188.26 554.347ZM1207.88 557.912C1211.16 558.529 1214.4 559.149 1217.6 559.774L1217.98 557.811C1214.78 557.185 1211.53 556.564 1208.25 555.946L1207.88 557.912ZM1227.43 561.73C1230.73 562.402 1233.98 563.077 1237.18 563.756L1237.59 561.799C1234.39 561.119 1231.13 560.443 1227.82 559.77L1227.43 561.73ZM1246.85 565.857C1250.18 566.598 1253.44 567.343 1256.64 568.093L1257.09 566.146C1253.89 565.394 1250.62 564.647 1247.29 563.905L1246.85 565.857ZM1266.31 570.429C1269.58 571.244 1272.77 572.063 1275.87 572.886L1276.38 570.954C1273.27 570.127 1270.07 569.305 1266.79 568.489L1266.31 570.429ZM1285.51 575.547C1288.83 576.497 1292.02 577.453 1295.08 578.414L1295.68 576.506C1292.6 575.539 1289.39 574.579 1286.07 573.624L1285.51 575.547ZM1304.53 581.54C1306.09 582.085 1307.6 582.631 1309.07 583.179L1309.77 581.304C1308.29 580.752 1306.76 580.201 1305.19 579.652L1304.53 581.54Z" fill="#EAE1FF"/>
</svg>
