<svg width="128" height="166" viewBox="0 0 128 166" fill="none" xmlns="http://www.w3.org/2000/svg">
<g opacity="0.2" clip-path="url(#clip0_1_164)">
<path d="M51.0404 140.676C50.5004 140.743 49.9604 140.809 49.4519 140.835C49.2359 140.862 49.1368 140.947 49.0509 141.141C48.5721 142.296 48.0976 143.487 47.6187 144.643C47.5329 144.836 47.4382 144.958 47.2178 144.948C43.5233 145.221 39.8245 145.458 36.13 145.73C36.094 145.735 36.058 145.739 35.9816 145.712C37.1993 141.359 38.4574 137.038 39.7023 132.608C38.9822 132.697 38.3026 132.817 37.6457 132.825C37.0652 132.86 36.7634 133.08 36.4611 133.592C35.5358 135.278 34.5702 136.932 33.6405 138.582C33.5231 138.815 33.352 138.91 33.064 138.945C32.2675 139.007 31.4754 139.104 30.6834 139.202C30.5754 139.215 30.4314 139.233 30.2874 139.251C30.385 140.043 30.4738 140.763 30.5354 141.559C31.0034 141.502 31.4355 141.448 31.9395 141.386C31.8492 141.544 31.8266 141.656 31.7634 141.737C30.9511 143.153 30.1389 144.569 29.331 146.02C29.2092 146.218 29.0741 146.308 28.8581 146.335C26.6259 146.61 24.3893 146.849 22.1572 147.124C20.8251 147.288 19.5196 147.669 18.3621 148.36C17.6865 148.808 17.1277 149.316 16.852 150.044C16.8742 150.224 16.8964 150.404 16.9186 150.584C17.4167 151.363 18.226 151.702 19.094 151.924C20.3038 152.25 21.514 152.284 22.7425 152.169C24.9791 151.929 27.1797 151.695 29.4119 151.419C29.6279 151.393 29.7807 151.447 29.947 151.609C31.0472 152.826 32.1791 154.002 33.3154 155.214C33.3962 155.277 33.4456 155.381 33.5713 155.512C33.0673 155.574 32.6352 155.627 32.1672 155.685C32.2649 156.477 32.3536 157.197 32.4153 157.993C33.0993 157.909 33.7922 157.897 34.4314 157.745C35.2506 157.571 35.7901 157.796 36.3425 158.423C37.5369 159.81 38.7901 161.081 40.0162 162.429C40.1868 162.627 40.3397 162.681 40.5917 162.65C41.4197 162.548 42.2118 162.45 43.1119 162.339C40.9049 158.372 38.7339 154.4 36.527 150.433C36.9906 150.339 37.4226 150.286 37.8502 150.196C41.1131 149.685 44.34 149.177 47.6029 148.665C47.8189 148.638 47.9718 148.693 48.102 148.859C48.8156 149.904 49.5608 150.909 50.27 151.918C50.4046 152.121 50.5575 152.175 50.7735 152.148C51.2776 152.086 51.8176 152.02 52.3216 151.957C52.3128 151.885 52.3039 151.813 52.295 151.741C52.2546 151.71 52.2457 151.638 52.2052 151.606C51.7757 150.197 51.3506 148.824 50.957 147.411C50.8273 146.952 50.6932 146.457 50.7031 145.944C50.6912 144.959 50.7874 143.96 50.852 143.002C50.9117 142.3 50.9714 141.598 51.0266 140.86C51.0582 140.82 51.0493 140.748 51.0404 140.676Z" fill="#512EA6"/>
<path d="M91.6025 2.46004C107.419 23.133 116.635 51.0519 115.826 77.1003C114.624 114.783 83.5742 143.975 46.8543 147.04" stroke="#512EA6" stroke-width="2" stroke-miterlimit="10" stroke-dasharray="10 10"/>
</g>
<defs>
<clipPath id="clip0_1_164">
<rect width="109.115" height="153.144" fill="white" transform="matrix(0.992486 -0.122359 -0.122359 -0.992486 18.7383 165.344)"/>
</clipPath>
</defs>
</svg>
