<svg width="261" height="82" viewBox="0 0 261 82" fill="none" xmlns="http://www.w3.org/2000/svg">
<path d="M252.262 82H8.13738C3.66175 82 -0.00012207 78.31 -0.00012207 73.8V8.2C-0.00012207 3.69 3.66175 0 8.13738 0H252.262C256.738 0 260.4 3.69 260.4 8.2V73.8C260.4 78.31 256.738 82 252.262 82Z" fill="white"/>
<path fill-rule="evenodd" clip-rule="evenodd" d="M19.9366 40.1799V18.6549C19.9366 17.4249 20.9538 16.3999 21.971 16.3999C22.9882 16.3999 23.3951 16.6049 24.0054 17.0149L63.2688 38.7449C64.0826 39.1549 64.4894 39.7699 64.4894 40.3849C64.4894 40.9999 64.0826 41.6149 63.2688 42.0249L24.0054 63.7549C23.5985 63.9599 22.9882 64.3699 21.971 64.3699C20.9538 64.3699 19.9366 63.3449 19.9366 62.1149V40.1799Z" fill="url(#paint0_linear_1_392)"/>
<path fill-rule="evenodd" clip-rule="evenodd" d="M45.3664 40.3849L21.5642 16.3999C21.7676 16.3999 21.7676 16.3999 21.9711 16.3999C22.9883 16.3999 23.3951 16.6049 24.0055 17.0149L52.8936 33.0049L45.3664 40.3849Z" fill="url(#paint1_linear_1_392)"/>
<path fill-rule="evenodd" clip-rule="evenodd" d="M52.6901 47.5597L45.3663 40.1797L52.8935 32.5947L63.2688 38.3347C64.0826 38.7447 64.4894 39.3597 64.4894 39.9747C64.4894 40.5897 64.0826 41.2047 63.2688 41.6147L52.6901 47.5597Z" fill="url(#paint2_linear_1_392)"/>
<path fill-rule="evenodd" clip-rule="evenodd" d="M21.7682 63.9602L45.367 40.1802L52.6907 47.5602L24.006 63.3452C23.3957 63.7552 22.9888 63.9602 21.7682 63.9602C21.9716 63.9602 21.9716 63.9602 21.7682 63.9602Z" fill="url(#paint3_linear_1_392)"/>
<path fill-rule="evenodd" clip-rule="evenodd" d="M144.643 69.4949C143.626 68.6749 142.812 67.2399 142.406 66.4199L145.661 64.9849C145.864 65.3949 146.271 66.0099 146.678 66.6249C147.492 67.4449 148.712 68.2649 149.933 68.2649C151.153 68.2649 152.577 67.6499 153.391 66.6249C154.002 65.5999 154.408 64.5749 154.408 63.1399V61.9099C151.967 64.9849 146.881 64.5749 144.033 61.2949C140.981 58.0149 140.981 52.4799 144.033 49.1999C147.085 46.1249 151.56 45.7149 154.205 48.5849V47.1499H157.663V62.5249C157.663 66.4199 156.239 68.6749 154.408 70.1099C153.188 71.1349 151.357 71.5449 149.729 71.5449C147.898 71.3399 146.067 70.7249 144.643 69.4949ZM229.884 70.3149L233.342 62.1149L227.239 47.9699H230.697L234.97 58.0149L239.242 47.9699H242.7L233.342 70.3149H229.884ZM213.405 62.5249C212.388 61.4999 211.981 60.0649 211.981 58.6299C211.981 57.3999 212.388 56.1699 213.202 55.3499C214.626 53.9149 216.66 53.2999 218.898 53.2999C220.322 53.2999 221.543 53.5049 222.56 54.1199C222.56 51.6599 220.526 50.6349 218.898 50.6349C217.474 50.6349 216.05 51.4549 215.44 52.8899L212.388 51.6599C212.998 50.2249 214.626 47.5599 218.695 47.5599C220.729 47.5599 222.763 48.1749 223.984 49.6099C225.205 51.0449 225.611 52.6849 225.611 54.9399V63.5499H222.153V62.1149C221.746 62.7299 220.932 63.1399 220.322 63.5499C219.508 63.9599 218.491 64.1649 217.474 64.1649C216.253 63.9599 214.422 63.5499 213.405 62.5249ZM104.973 55.1449C104.973 51.0449 108.025 46.5349 113.517 46.5349C118.807 46.5349 122.062 51.0449 122.062 55.1449C122.062 59.2449 119.01 63.7549 113.517 63.7549C108.025 63.7549 104.973 59.2449 104.973 55.1449ZM123.282 55.1449C123.282 51.0449 126.334 46.5349 131.827 46.5349C137.116 46.5349 140.371 51.0449 140.371 55.1449C140.371 59.2449 137.32 63.7549 131.827 63.7549C126.537 63.7549 123.282 59.2449 123.282 55.1449ZM81.9847 59.6549C76.8987 54.5299 77.1021 46.1249 82.1881 40.7949C84.8328 38.1299 88.0878 36.8999 91.5462 36.8999C94.8012 36.8999 98.0562 38.1299 100.497 40.5899L98.0562 43.2549C94.3943 39.5649 88.4947 39.7699 85.0362 43.4599C81.3743 47.3549 81.3743 53.2999 85.0362 57.1949C88.6981 61.0899 94.8012 61.2949 98.4631 57.3999C99.6837 56.1699 100.091 54.5299 100.294 52.8899H91.7497V49.1999H103.752C103.956 50.0199 103.956 51.0449 103.956 52.0699C103.956 55.1449 102.735 58.2199 100.701 60.2699C98.4631 62.5249 95.2081 63.7549 91.9531 63.7549C88.2912 63.5499 84.6293 62.3199 81.9847 59.6549ZM168.039 61.0899C164.987 57.8099 164.987 52.2749 168.039 48.7899C171.09 45.5099 176.176 45.5099 179.024 48.7899C180.042 49.8149 180.652 51.2499 181.262 52.6849L170.073 57.3999C170.683 58.8349 172.107 60.0649 174.142 60.0649C175.973 60.0649 177.193 59.4499 178.414 57.6049L181.466 59.6549C181.059 60.0649 180.652 60.4749 180.448 60.8849C176.99 64.3699 171.09 64.3699 168.039 61.0899ZM189.196 63.5499V40.7949H196.52C200.792 40.7949 204.251 43.8699 204.251 47.5599C204.251 51.2499 201.199 54.3249 197.334 54.3249H192.858V63.3449H189.196V63.5499ZM206.285 63.5499V40.7949H209.743V63.5499H206.285ZM160.308 63.1399V37.7199H163.97V63.1399H160.308ZM222.356 56.7849C221.543 56.1699 220.322 55.9649 219.102 55.9649C216.66 55.9649 215.236 57.1949 215.236 58.6299C215.236 60.0649 216.66 60.8849 218.084 60.8849C220.119 60.8849 222.356 59.2449 222.356 56.7849ZM118.197 55.1449C118.197 52.6849 116.569 50.0199 113.517 50.0199C110.466 50.0199 108.838 52.6849 108.838 55.1449C108.838 57.6049 110.466 60.2699 113.517 60.2699C116.366 60.2699 118.197 57.6049 118.197 55.1449ZM136.506 55.1449C136.506 52.6849 134.878 50.0199 131.827 50.0199C128.775 50.0199 127.148 52.6849 127.148 55.1449C127.148 57.6049 128.775 60.2699 131.827 60.2699C134.878 60.2699 136.506 57.6049 136.506 55.1449ZM154.612 56.5799C154.612 56.3749 154.612 56.1699 154.815 55.9649C154.815 55.7599 154.815 55.3499 154.815 55.1449C154.815 54.9399 154.815 54.5299 154.815 54.3249V54.1199C154.815 53.9149 154.612 53.5049 154.612 53.2999C154.002 51.2499 152.171 49.8149 150.34 49.8149C147.898 49.8149 145.864 52.2749 145.864 54.9399C145.864 57.8099 147.898 60.0649 150.543 60.0649C152.171 60.2699 153.798 58.8349 154.612 56.5799ZM169.463 54.7349L176.99 51.4549C176.176 50.0199 174.956 49.6099 173.938 49.6099C170.887 49.8149 169.056 53.0949 169.463 54.7349ZM200.589 47.7649C200.589 45.7149 198.961 44.2799 196.723 44.2799H192.655V51.4549H196.927C198.961 51.4549 200.589 49.8149 200.589 47.7649Z" fill="#3F434A"/>
<path fill-rule="evenodd" clip-rule="evenodd" d="M232.531 66.2161H232.326V66.0098H232.531H232.326V66.2161H232.531Z" fill="#3F434A"/>
<path fill-rule="evenodd" clip-rule="evenodd" d="M232.937 66.2161C232.937 66.0098 232.937 66.0098 232.937 66.2161C232.732 66.0098 232.732 66.0098 232.937 66.2161C232.732 66.2161 232.732 66.2161 232.937 66.2161ZM232.937 66.0098C232.937 66.2161 232.937 66.2161 232.937 66.0098C232.732 66.2161 232.937 66.2161 232.937 66.0098C232.937 66.0098 232.732 66.0098 232.937 66.0098Z" fill="#3F434A"/>
<path fill-rule="evenodd" clip-rule="evenodd" d="M233.14 66.0098H232.935H233.14V66.2161V66.0098Z" fill="#3F434A"/>
<path d="M79.1366 20.7048C79.1366 17.0148 81.7813 14.7598 85.0363 14.7598C87.2741 14.7598 88.6982 15.7848 89.7154 17.2198L88.0879 18.2448C87.4776 17.4248 86.4604 16.8098 85.0363 16.8098C82.7985 16.8098 81.171 18.4498 81.171 20.9098C81.171 23.3698 82.7985 25.0098 85.0363 25.0098C86.2569 25.0098 87.2741 24.3948 87.681 23.9848V22.1398H84.426V20.2948H89.9188V24.5998C88.9016 25.8298 87.2741 26.6498 85.2397 26.6498C81.7813 26.6498 79.1366 24.1898 79.1366 20.7048Z" fill="#3F434A"/>
<path d="M92.3602 26.4449V14.9648H100.091V16.8098H94.1912V19.6798H99.8874V21.5248H94.1912V24.8049H100.091V26.6499L92.3602 26.4449Z" fill="#3F434A"/>
<path d="M105.787 26.4449V16.8098H102.329V14.9648H111.28V16.8098H107.822V26.4449H105.787Z" fill="#3F434A"/>
<path d="M118.197 26.4449V14.9648H120.232V26.4449H118.197Z" fill="#3F434A"/>
<path d="M125.724 26.4449V16.8098H122.266V14.9648H131.217V16.8098H127.758V26.4449H125.724Z" fill="#3F434A"/>
<path d="M137.727 20.7048C137.727 17.2198 140.169 14.7598 143.627 14.7598C147.086 14.7598 149.527 17.2198 149.527 20.7048C149.527 24.1898 147.086 26.6498 143.627 26.6498C140.169 26.6498 137.727 23.9848 137.727 20.7048ZM147.289 20.7048C147.289 18.2448 145.865 16.6048 143.424 16.6048C141.186 16.6048 139.558 18.4498 139.558 20.7048C139.558 23.1648 140.982 24.8048 143.424 24.8048C145.865 24.8048 147.289 22.9598 147.289 20.7048Z" fill="#3F434A"/>
<path d="M159.699 26.4449L153.799 18.2448V26.4449H151.765V14.9648H153.799L159.699 22.9599V14.9648H161.733V26.4449H159.699Z" fill="#3F434A"/>
<defs>
<linearGradient id="paint0_linear_1_392" x1="33.0938" y1="13.4758" x2="44.6482" y2="60.5665" gradientUnits="userSpaceOnUse">
<stop stop-color="#006884"/>
<stop offset="1" stop-color="#8AD1D0"/>
</linearGradient>
<linearGradient id="paint1_linear_1_392" x1="19.2058" y1="20.1797" x2="50.3491" y2="36.8877" gradientUnits="userSpaceOnUse">
<stop stop-color="#24BBB6"/>
<stop offset="1" stop-color="#DBE692"/>
</linearGradient>
<linearGradient id="paint2_linear_1_392" x1="54.9165" y1="48.4209" x2="54.9165" y2="32.1267" gradientUnits="userSpaceOnUse">
<stop stop-color="#FCC072"/>
<stop offset="1" stop-color="#F58A5B"/>
</linearGradient>
<linearGradient id="paint3_linear_1_392" x1="25.2158" y1="68.2018" x2="49.9244" y2="43.2472" gradientUnits="userSpaceOnUse">
<stop stop-color="#712B8F"/>
<stop offset="1" stop-color="#EA1D27"/>
</linearGradient>
</defs>
</svg>
