<svg width="261" height="82" viewBox="0 0 261 82" fill="none" xmlns="http://www.w3.org/2000/svg">
<path fill-rule="evenodd" clip-rule="evenodd" d="M232.531 66.2163H232.326V66.01H232.531H232.326V66.2163H232.531Z" fill="white"/>
<path fill-rule="evenodd" clip-rule="evenodd" d="M232.937 66.2163C232.937 66.01 232.937 66.01 232.937 66.2163C232.732 66.01 232.732 66.01 232.937 66.2163C232.732 66.2163 232.732 66.2163 232.937 66.2163ZM232.937 66.01C232.937 66.2163 232.937 66.2163 232.937 66.01C232.732 66.2163 232.937 66.2163 232.937 66.01C232.937 66.01 232.732 66.01 232.937 66.01Z" fill="white"/>
<path fill-rule="evenodd" clip-rule="evenodd" d="M233.141 66.01H232.936H233.141V66.2163V66.01Z" fill="white"/>
<path d="M252.262 82H8.1375C3.66187 82 0 78.31 0 73.8V8.2C0 3.69 3.66187 0 8.1375 0H252.262C256.738 0 260.4 3.69 260.4 8.2V73.8C260.4 78.31 256.738 82 252.262 82Z" fill="#512EA6"/>
<path fill-rule="evenodd" clip-rule="evenodd" d="M36 38.8291V20.8803C36 19.8547 36.8447 19 37.6895 19C38.5342 19 38.8721 19.1709 39.379 19.5128L71.9863 37.6325C72.6621 37.9744 73 38.4872 73 39C73 39.5128 72.6621 40.0256 71.9863 40.3675L39.379 58.4872C39.0411 58.6581 38.5342 59 37.6895 59C36.8447 59 36 58.1453 36 57.1197V38.8291Z" fill="url(#paint0_linear_1_66)"/>
<path fill-rule="evenodd" clip-rule="evenodd" d="M56.7533 39L37 19C37.1688 19 37.1688 19 37.3377 19C38.1818 19 38.5195 19.1709 39.026 19.5128L63 32.8461L56.7533 39Z" fill="url(#paint1_linear_1_66)"/>
<path fill-rule="evenodd" clip-rule="evenodd" d="M63.1276 45L57 39.0822L63.2979 33L71.9787 37.6027C72.6596 37.9315 73 38.4247 73 38.9178C73 39.411 72.6596 39.9041 71.9787 40.2329L63.1276 45Z" fill="url(#paint2_linear_1_66)"/>
<path fill-rule="evenodd" clip-rule="evenodd" d="M37 59L56.8421 39L63 45.2069L38.8816 58.4828C38.3684 58.8276 38.0263 59 37 59C37.1711 59 37.1711 59 37 59Z" fill="url(#paint3_linear_1_66)"/>
<path fill-rule="evenodd" clip-rule="evenodd" d="M143.915 66.2249C143.043 65.5148 142.345 64.2722 141.996 63.5621L144.788 62.3195C144.962 62.6746 145.311 63.2071 145.66 63.7396C146.358 64.4497 147.404 65.1598 148.451 65.1598C149.498 65.1598 150.719 64.6272 151.417 63.7396C151.94 62.8521 152.289 61.9645 152.289 60.7219V59.6568C150.196 62.3195 145.834 61.9645 143.392 59.1243C140.775 56.284 140.775 51.4911 143.392 48.6509C146.009 45.9882 149.847 45.6331 152.115 48.1183V46.8757H155.08V60.1893C155.08 63.5621 153.859 65.5148 152.289 66.7574C151.242 67.645 149.672 68 148.277 68C146.707 67.8225 145.137 67.2899 143.915 66.2249ZM217.01 66.9349L219.975 59.8343L214.742 47.5858H217.708L221.371 56.284L225.034 47.5858H228L219.975 66.9349H217.01ZM202.879 60.1893C202.007 59.3018 201.658 58.0592 201.658 56.8166C201.658 55.7515 202.007 54.6864 202.705 53.9763C203.926 52.7337 205.671 52.2012 207.589 52.2012C208.811 52.2012 209.857 52.3787 210.73 52.9112C210.73 50.7811 208.985 49.8935 207.589 49.8935C206.368 49.8935 205.147 50.6035 204.624 51.8462L202.007 50.7811C202.53 49.5385 203.926 47.2308 207.415 47.2308C209.159 47.2308 210.904 47.7633 211.951 49.0059C212.997 50.2485 213.346 51.6686 213.346 53.6213V61.0769H210.381V59.8343C210.032 60.3669 209.334 60.7219 208.811 61.0769C208.113 61.432 207.241 61.6095 206.368 61.6095C205.322 61.4319 203.752 61.0769 202.879 60.1893ZM109.898 53.7988C109.898 50.2485 112.515 46.3432 117.225 46.3432C121.76 46.3432 124.552 50.2485 124.552 53.7988C124.552 57.3491 121.935 61.2544 117.225 61.2544C112.515 61.2544 109.898 57.3491 109.898 53.7988ZM125.598 53.7988C125.598 50.2485 128.215 46.3432 132.925 46.3432C137.461 46.3432 140.252 50.2485 140.252 53.7988C140.252 57.3491 137.635 61.2544 132.925 61.2544C128.389 61.2544 125.598 57.3491 125.598 53.7988ZM90.185 57.7041C85.8238 53.2663 85.9982 45.9882 90.3595 41.3728C92.6273 39.0651 95.4185 38 98.3841 38C101.175 38 103.967 39.0651 106.06 41.1953L103.967 43.503C100.826 40.3077 95.7674 40.4852 92.8018 43.6805C89.6617 47.0533 89.6617 52.2012 92.8018 55.574C95.9418 58.9467 101.175 59.1243 104.315 55.7515C105.362 54.6864 105.711 53.2663 105.885 51.8462H98.5586V48.6509H108.851C109.026 49.3609 109.026 50.2485 109.026 51.1361C109.026 53.7988 107.979 56.4615 106.234 58.2367C104.315 60.1894 101.524 61.2544 98.733 61.2544C95.5929 61.0769 92.4529 60.0118 90.185 57.7041ZM163.977 58.9467C161.36 56.1065 161.36 51.3136 163.977 48.2959C166.594 45.4556 170.955 45.4556 173.397 48.2959C174.27 49.1834 174.793 50.426 175.316 51.6686L165.722 55.7515C166.245 56.9941 167.466 58.0592 169.211 58.0592C170.781 58.0592 171.827 57.5266 172.874 55.929L175.491 57.7041C175.142 58.0592 174.793 58.4142 174.619 58.7692C171.653 61.787 166.594 61.787 163.977 58.9467ZM182.12 61.0769V41.3728H188.4C192.063 41.3728 195.029 44.0355 195.029 47.2308C195.029 50.426 192.412 53.0888 189.098 53.0888H185.26V60.8994H182.12V61.0769ZM196.774 61.0769V41.3728H199.739V61.0769H196.774ZM157.348 60.7219V38.7101H160.488V60.7219H157.348ZM210.555 55.2189C209.857 54.6864 208.811 54.5089 207.764 54.5089C205.671 54.5089 204.449 55.574 204.449 56.8166C204.449 58.0592 205.671 58.7692 206.892 58.7692C208.636 58.7692 210.555 57.3491 210.555 55.2189ZM121.237 53.7988C121.237 51.6686 119.841 49.3609 117.225 49.3609C114.608 49.3609 113.212 51.6686 113.212 53.7988C113.212 55.929 114.608 58.2367 117.225 58.2367C119.667 58.2367 121.237 55.929 121.237 53.7988ZM136.937 53.7988C136.937 51.6686 135.542 49.3609 132.925 49.3609C130.308 49.3609 128.913 51.6686 128.913 53.7988C128.913 55.929 130.308 58.2367 132.925 58.2367C135.542 58.2367 136.937 55.929 136.937 53.7988ZM152.463 55.0414C152.463 54.8639 152.463 54.6864 152.638 54.5089C152.638 54.3314 152.638 53.9763 152.638 53.7988C152.638 53.6213 152.638 53.2663 152.638 53.0888V52.9112C152.638 52.7337 152.463 52.3787 152.463 52.2012C151.94 50.426 150.37 49.1834 148.8 49.1834C146.707 49.1834 144.962 51.3136 144.962 53.6213C144.962 56.1065 146.707 58.0592 148.974 58.0592C150.37 58.2367 151.766 56.9941 152.463 55.0414ZM165.198 53.4438L171.653 50.6035C170.955 49.3609 169.908 49.0059 169.036 49.0059C166.419 49.1834 164.849 52.0237 165.198 53.4438ZM191.889 47.4083C191.889 45.6331 190.493 44.3905 188.574 44.3905H185.086V50.6035H188.749C190.493 50.6035 191.889 49.1834 191.889 47.4083Z" fill="white"/>
<path d="M87 19.945C87 16.255 89.6447 14 92.8997 14C95.1375 14 96.5616 15.025 97.5788 16.46L95.9513 17.485C95.341 16.665 94.3238 16.05 92.8997 16.05C90.6619 16.05 89.0344 17.69 89.0344 20.15C89.0344 22.61 90.6619 24.25 92.8997 24.25C94.1203 24.25 95.1375 23.635 95.5444 23.225V21.38H92.2894V19.535H97.7822V23.84C96.765 25.07 95.1375 25.89 93.1031 25.89C89.6447 25.89 87 23.43 87 19.945Z" fill="white"/>
<path d="M100.224 25.6851V14.2051H107.954V16.0501H102.055V18.9201H107.751V20.7651H102.055V24.0451H107.954V25.8901L100.224 25.6851Z" fill="white"/>
<path d="M113.651 25.6851V16.0501H110.192V14.2051H119.144V16.0501H115.685V25.6851H113.651Z" fill="white"/>
<path d="M126.061 25.6851V14.2051H128.095V25.6851H126.061Z" fill="white"/>
<path d="M133.587 25.6851V16.0501H130.129V14.2051H139.08V16.0501H135.622V25.6851H133.587Z" fill="white"/>
<path d="M145.591 19.945C145.591 16.46 148.032 14 151.491 14C154.949 14 157.39 16.46 157.39 19.945C157.39 23.43 154.949 25.89 151.491 25.89C148.032 25.89 145.591 23.225 145.591 19.945ZM155.152 19.945C155.152 17.485 153.728 15.845 151.287 15.845C149.049 15.845 147.422 17.69 147.422 19.945C147.422 22.405 148.846 24.045 151.287 24.045C153.728 24.045 155.152 22.2 155.152 19.945Z" fill="white"/>
<path d="M167.562 25.6851L161.662 17.4851V25.6851H159.628V14.2051H161.662L167.562 22.2001V14.2051H169.596V25.6851H167.562Z" fill="white"/>
<defs>
<linearGradient id="paint0_linear_1_66" x1="46.9267" y1="16.5617" x2="56.5961" y2="55.8103" gradientUnits="userSpaceOnUse">
<stop stop-color="#006884"/>
<stop offset="1" stop-color="#8AD1D0"/>
</linearGradient>
<linearGradient id="paint1_linear_1_66" x1="35.0427" y1="22.1518" x2="60.9433" y2="35.9811" gradientUnits="userSpaceOnUse">
<stop stop-color="#24BBB6"/>
<stop offset="1" stop-color="#DBE692"/>
</linearGradient>
<linearGradient id="paint2_linear_1_66" x1="64.9905" y1="45.6906" x2="64.9905" y2="32.6247" gradientUnits="userSpaceOnUse">
<stop stop-color="#FCC072"/>
<stop offset="1" stop-color="#F58A5B"/>
</linearGradient>
<linearGradient id="paint3_linear_1_66" x1="39.8988" y1="62.5674" x2="60.6799" y2="41.5852" gradientUnits="userSpaceOnUse">
<stop stop-color="#712B8F"/>
<stop offset="1" stop-color="#EA1D27"/>
</linearGradient>
</defs>
</svg>
