<svg width="80" height="80" viewBox="0 0 80 80" fill="none" xmlns="http://www.w3.org/2000/svg">
<circle cx="40" cy="40" r="39.5" fill="#F6F5FB" stroke="#512EA6" stroke-linecap="round" stroke-dasharray="5 5"/>
<g clip-path="url(#clip0_1_204)">
<path d="M30.3125 16.0125C36.7625 16.0125 43.225 16.0125 49.675 16.0125C49.7625 16.175 49.925 16.1125 50.05 16.15C52.675 16.8125 54.375 18.95 54.4125 21.65C54.425 22.525 54.4375 23.4 54.4125 24.275C54.4 24.6875 54.5 24.8375 54.95 24.825C56.8625 24.8 58.7875 24.8125 60.7 24.8125C62.325 24.8125 63.4875 25.725 63.9125 27.2875C63.925 27.3375 63.975 27.3875 64 27.4375C64 30.5 64 33.5625 64 36.625C63.975 36.6625 63.925 36.6875 63.9125 36.725C63.3125 38.475 62.3125 39.1875 60.45 39.2C58.675 39.2 56.9 39.2 55.125 39.2C54.3375 39.2 54.425 39.1374 54.425 39.9C54.425 46 54.425 52.1125 54.425 58.2125C54.425 61.0125 52.7375 63.1624 50.0625 63.8499C49.9375 63.8874 49.775 63.825 49.6875 63.9874C43.2375 63.9874 36.775 63.9874 30.325 63.9874C30.2125 63.825 30.025 63.8499 29.8625 63.7999C27.6125 63.2124 25.95 61.2875 25.725 58.9625C25.6125 57.8625 25.6875 56.75 25.6875 55.6375C25.6875 55.2625 25.575 55.1624 25.2125 55.1749C23.3375 55.1875 21.475 55.1875 19.6 55.1875C17.4125 55.1875 16.1 53.8875 16.1 51.7C16.1 49.25 16.1625 46.8 16.075 44.35C16.0125 42.3875 17.4125 40.7375 19.6125 40.7875C22.5125 40.85 25.4125 40.7999 28.3 40.7999C28.5 40.7999 28.7 40.775 28.9 40.7625C29.0875 40.775 29.275 40.7875 29.4625 40.7875C31.65 40.7875 33.825 40.7875 36.0125 40.7875C36.2125 40.7875 36.4125 40.7875 36.625 40.8125C37.15 40.875 37.525 41.2 37.6625 41.7C37.7875 42.175 37.6125 42.675 37.1875 42.975C37 43.1125 36.7875 43.2125 36.5875 43.3375C34.675 44.525 33.55 46.15 33.6625 48.5C33.7125 49.6375 33.6875 50.7749 33.6625 51.9124C33.6375 53.7999 32.275 55.1499 30.4 55.1749C29.9 55.1875 29.4 55.1875 28.9 55.2C28.4625 55.1875 28.025 55.2 27.6 55.1749C27.325 55.1624 27.2625 55.2874 27.2625 55.5374C27.275 56.5999 27.2375 57.65 27.3 58.7125C27.4125 60.6125 28.8875 62.1125 30.775 62.3375C30.95 62.4125 31.1375 62.3875 31.325 62.3875C37.1125 62.3875 42.9125 62.3875 48.7 62.3875C48.9375 62.3875 49.1625 62.3999 49.3875 62.2999C49.8875 62.325 50.3375 62.125 50.75 61.875C52.2125 61.025 52.825 59.7 52.825 58.0499C52.825 52.2625 52.825 46.4625 52.825 40.6749C52.825 39.0374 52.825 39.0375 51.1625 39.225C50.475 39.2125 49.7875 39.2 49.1125 39.2C47.2875 39.2 45.475 39.2 43.65 39.1875C43.0125 39.1875 42.5875 38.85 42.4375 38.2875C42.3 37.775 42.525 37.2625 43.0375 36.9375C43.225 36.825 43.4125 36.725 43.6 36.6C45.4625 35.4125 46.5625 33.8 46.45 31.4875C46.4 30.3625 46.4375 29.2375 46.4375 28.1125C46.45 26.175 47.8125 24.825 49.7375 24.8C50.225 24.8 50.7 24.7875 51.1875 24.7875C51.6125 24.7875 52.025 24.7875 52.45 24.8C52.7625 24.8125 52.85 24.675 52.85 24.3875C52.8375 23.5 52.875 22.6125 52.8375 21.7125C52.7625 19.6625 51.6125 18.175 49.7875 17.725C49.6 17.675 49.4 17.575 49.225 17.7625C48.8375 18.3875 48.4625 19.0125 48.075 19.6375C47.275 20.9125 46.1125 21.5875 44.6125 21.5875C41.575 21.6125 38.5375 21.6125 35.5 21.5875C34.0125 21.575 32.8375 20.9 32.05 19.625C31.7 19.075 31.375 18.5 31.0375 17.9375C30.9625 17.8125 30.9375 17.625 30.7125 17.675C30.475 17.6625 30.25 17.7375 30.025 17.8125C28.325 18.375 27.3 19.8625 27.2875 21.8C27.275 26.1 27.2875 30.3875 27.2875 34.6875C27.2875 34.9 27.3 35.125 27.25 35.3375C27.1625 35.7374 26.9 35.9499 26.4875 35.9625C25.975 35.975 25.6875 35.6125 25.6875 34.975C25.6875 30.5125 25.6625 26.0375 25.7 21.575C25.7125 18.95 27.4125 16.85 29.975 16.15C30.075 16.1375 30.2375 16.1625 30.3125 16.0125ZM44.425 19.9875C45 20.0125 45.5375 19.9 46 19.55C46.575 19.125 46.8875 18.4875 47.2375 17.8875C47.3625 17.675 47.225 17.6125 47.0375 17.6125C46.6625 17.6125 46.3 17.625 45.925 17.625C41.8625 17.625 37.8 17.6125 33.725 17.6125C33.425 17.6125 32.9875 17.4625 32.85 17.7C32.7 17.95 33.075 18.225 33.2125 18.5C33.775 19.6 34.6875 20.0625 35.925 20.0375C38.2 20.0125 40.475 20.025 42.75 20.025C43.3 20.025 43.8625 20 44.425 19.9875ZM19.75 53.575C21.025 53.575 22.3 53.5875 23.5875 53.5875C25.7125 53.5875 27.825 53.575 29.95 53.5625C31.4375 53.6624 32.0875 53.0625 32.0875 51.5625C32.0875 50.3875 32.075 49.2249 32.0875 48.0499C32.1125 45.9 32.975 44.1625 34.6125 42.775C34.725 42.6875 34.9 42.6374 34.925 42.4249C34.6375 42.4249 34.3625 42.4249 34.0875 42.4249C33.8875 42.4124 33.6875 42.4 33.4875 42.4C29.1625 42.4 24.85 42.4 20.525 42.4C20.3125 42.4 20.0875 42.4124 19.875 42.4249C18.375 42.3125 17.725 42.9 17.725 44.3875C17.725 46.7875 17.725 49.1875 17.725 51.5875C17.7 53.05 18.3 53.6375 19.75 53.575ZM60.3375 26.4375C60.15 26.425 59.9625 26.4125 59.775 26.4125C56.4875 26.4125 53.2 26.4125 49.9125 26.4125C48.625 26.4125 48.025 27.0125 48.0125 28.3C48.0125 29.5375 48.025 30.7625 48.0125 32C47.975 34.125 47.1125 35.85 45.5 37.225C45.3875 37.325 45.225 37.375 45.175 37.5375C45.3125 37.65 45.475 37.6 45.625 37.6C50.35 37.6 55.0625 37.6 59.7875 37.6C59.975 37.6 60.1625 37.575 60.35 37.5625C61.7 37.7 62.4 37.0625 62.4 35.7C62.4 33.2375 62.4 30.775 62.4 28.3125C62.4 26.95 61.7125 26.325 60.3375 26.4375Z" fill="#512EA6"/>
<path d="M29.0125 34.475C28.8625 34.2875 28.9125 34.05 28.9125 33.8375C28.9125 29.7625 28.9125 25.6875 28.9125 21.6125C28.9125 20.275 29.35 19.15 30.3125 18.2125C30.4625 18.0625 30.6625 17.9375 30.6875 17.7C30.9125 17.6375 30.9375 17.8375 31.0125 17.9625C31.35 18.525 31.675 19.0875 32.025 19.65C32.825 20.925 33.9875 21.6 35.475 21.6125C38.5125 21.6375 41.55 21.6375 44.5875 21.6125C46.075 21.6 47.25 20.9375 48.05 19.6625C48.4375 19.0375 48.8125 18.4125 49.2 17.7875C50.4375 18.55 51.0625 19.7125 51.1625 21.1125C51.25 22.3375 51.175 23.575 51.175 24.8125C50.6875 24.8125 50.2125 24.825 49.725 24.825C47.8 24.8375 46.4375 26.2 46.425 28.1375C46.4125 29.2625 46.375 30.3875 46.4375 31.5125C46.55 33.825 45.45 35.4375 43.5875 36.625C43.4 36.7375 43.2125 36.8375 43.025 36.9625C42.5125 37.2875 42.2875 37.8 42.425 38.3125C42.575 38.875 43 39.2 43.6375 39.2125C45.4625 39.225 47.275 39.2125 49.1 39.225C49.7875 39.225 50.475 39.2375 51.15 39.25C51.15 39.4 51.1625 39.5625 51.1625 39.7125C51.1625 45.9875 51.1625 52.275 51.1625 58.55C51.1625 59.8125 50.675 60.85 49.825 61.75C49.6625 61.925 49.425 62.0625 49.375 62.325C49.15 62.425 48.925 62.4125 48.6875 62.4125C42.9 62.4125 37.1 62.4125 31.3125 62.4125C31.125 62.4125 30.9375 62.4375 30.7625 62.3625C30.65 62.0875 30.4125 61.9375 30.2125 61.7375C29.35 60.85 28.8875 59.8 28.8875 58.55C28.8875 57.45 28.8875 56.3375 28.8875 55.2375C29.3875 55.225 29.8875 55.225 30.3875 55.2125C32.2625 55.1875 33.625 53.8375 33.65 51.95C33.6625 50.8125 33.7 49.6625 33.65 48.5375C33.5375 46.175 34.675 44.5625 36.575 43.375C36.775 43.25 36.9875 43.15 37.175 43.0125C37.6 42.7125 37.775 42.2125 37.65 41.7375C37.5125 41.25 37.1375 40.9125 36.6125 40.85C36.4125 40.825 36.2125 40.825 36 40.825C33.8125 40.825 31.6375 40.825 29.45 40.825C29.2625 40.825 29.075 40.8125 28.8875 40.8C28.8875 39.675 28.8875 38.5625 28.8875 37.4375C28.8875 37.2625 28.8625 37.0875 28.9875 36.95C29.45 37.8125 30.125 38.425 31.15 38.4375C33.875 38.4625 36.6 38.475 39.325 38.4375C40.6125 38.425 41.6125 37.35 41.6125 36.0625C41.6125 34.125 40.8625 32.5125 39.4125 31.2375C39.1375 30.9875 39.1125 30.85 39.3125 30.525C40.525 28.5625 40.1375 26 38.4375 24.475C36.7 22.925 34.0875 22.8375 32.2875 24.2625C30.45 25.725 29.9125 28.25 31.0125 30.2875C31.35 30.925 31.3625 30.925 30.825 31.4125C29.9375 32.225 29.3875 33.3 29.0125 34.475ZM41.6375 53.7625C41.6375 54.325 41.625 54.775 41.6375 55.225C41.675 56.1 42.325 56.75 43.2 56.775C43.7125 56.7875 44.225 56.7875 44.7375 56.775C45.7625 56.7625 46.4 56.1375 46.4125 55.1125C46.425 54.6875 46.4125 54.2625 46.4125 53.75C46.85 54 47.2 54.2 47.55 54.4C48.5 54.925 49.35 54.7125 49.9125 53.7875C50.15 53.3875 50.3875 52.9875 50.6125 52.575C51.1 51.675 50.875 50.8125 50 50.2875C49.6375 50.0625 49.2625 49.85 48.8375 49.6C49.2625 49.35 49.625 49.15 49.975 48.9375C50.8625 48.4 51.1 47.55 50.6125 46.65C50.375 46.2125 50.125 45.775 49.8625 45.35C49.3375 44.5 48.4875 44.275 47.6 44.7625C47.3 44.925 47 45.1 46.7125 45.275C46.4875 45.4125 46.4125 45.325 46.4125 45.0875C46.4125 44.7125 46.425 44.3375 46.4125 43.9625C46.3875 43.1 45.775 42.4625 44.9125 42.425C44.3875 42.4 43.85 42.4125 43.325 42.4125C42.275 42.425 41.65 43.075 41.6375 44.125C41.6375 44.5375 41.6375 44.95 41.6375 45.4375C41.15 45.1625 40.775 44.925 40.375 44.725C39.5625 44.3 38.7125 44.525 38.225 45.3125C37.975 45.725 37.7375 46.15 37.5 46.5625C36.9625 47.525 37.1875 48.3875 38.125 48.9625C38.475 49.175 38.8625 49.325 39.2 49.6375C38.775 49.8875 38.375 50.1 38 50.3375C37.2375 50.8125 37 51.7 37.425 52.5C37.6375 52.9125 37.8875 53.3125 38.125 53.725C38.7125 54.7375 39.55 54.9625 40.575 54.4C40.8875 54.1875 41.225 54 41.6375 53.7625ZM40.05 59.9875C42.8375 59.9875 45.625 59.9875 48.4125 59.9875C48.5625 59.9875 48.725 59.9875 48.875 59.975C49.3 59.9375 49.575 59.65 49.6 59.2625C49.625 58.825 49.4125 58.5375 49 58.4375C48.825 58.3875 48.625 58.4 48.45 58.4C42.85 58.4 37.2375 58.4 31.6375 58.4C31.4625 58.4 31.2875 58.4 31.125 58.425C30.6875 58.525 30.4375 58.8875 30.5 59.325C30.5625 59.775 30.8625 59.9875 31.4625 59.9875C34.325 59.9875 37.1875 59.9875 40.05 59.9875Z" fill="#E6EBFB"/>
<path d="M60.3375 37.5624C60.15 37.5749 59.9625 37.5999 59.775 37.5999C55.05 37.5999 50.3375 37.5999 45.6125 37.5999C45.4625 37.5999 45.3 37.6499 45.1625 37.5374C45.2125 37.3749 45.375 37.3124 45.4875 37.2249C47.1 35.8624 47.9625 34.1249 48 31.9999C48.025 30.7624 48 29.5374 48 28.2999C48 27.0124 48.6125 26.4124 49.9 26.4124C53.1875 26.4124 56.475 26.4124 59.7625 26.4124C59.95 26.4124 60.1375 26.4249 60.325 26.4374C60.8375 27.3624 60.8125 28.3749 60.8 29.3874C60.7875 31.1499 60.7875 32.8999 60.8 34.6624C60.825 35.6499 60.875 36.6499 60.3375 37.5624ZM52.0125 31.9999C52.0125 31.5624 51.625 31.1999 51.2 31.2124C50.7875 31.2249 50.4375 31.5749 50.425 31.9999C50.4125 32.4499 50.7625 32.7999 51.2125 32.7999C51.6625 32.7874 52.025 32.4374 52.0125 31.9999ZM59.2 32.7874C59.65 32.7874 59.9875 32.4374 59.975 31.9749C59.9625 31.5499 59.625 31.1999 59.2125 31.1874C58.7875 31.1749 58.4 31.5499 58.4 31.9749C58.4 32.4249 58.7625 32.7874 59.2 32.7874ZM56.0125 31.9874C56 31.5499 55.6125 31.1874 55.1875 31.1999C54.75 31.2124 54.4125 31.5874 54.4375 32.0374C54.45 32.4749 54.7875 32.7874 55.225 32.7874C55.6625 32.7874 56.025 32.4249 56.0125 31.9874Z" fill="#E7ECFB"/>
<path d="M29.9375 53.5749C27.8125 53.5874 25.7 53.5874 23.575 53.5999C22.3 53.5999 21.025 53.5874 19.7375 53.5874C19.25 52.6499 19.25 51.6499 19.2625 50.6374C19.2875 48.5374 19.275 46.4249 19.2625 44.3249C19.2625 43.6374 19.425 42.9999 19.825 42.4374C20.0375 42.4249 20.2625 42.4124 20.475 42.4124C24.8 42.4124 29.1125 42.4124 33.4375 42.4124C33.6375 42.4124 33.8375 42.4249 34.0375 42.4374C33.75 42.6499 33.45 42.8499 33.1625 43.0624C31.4375 44.3249 30.4 45.9374 30.475 48.1624C30.5125 49.1249 30.4625 50.0999 30.4875 51.0624C30.525 51.9499 30.4375 52.7999 29.9375 53.5749ZM21.6875 47.9999C21.6875 47.5624 21.325 47.1999 20.8875 47.1999C20.45 47.1999 20.125 47.5249 20.1125 47.9624C20.1 48.4124 20.4375 48.7874 20.875 48.7874C21.3 48.7999 21.6875 48.4374 21.6875 47.9999ZM29.6625 47.9999C29.6625 47.5499 29.3125 47.1999 28.8625 47.1999C28.4375 47.1999 28.0875 47.5374 28.075 47.9624C28.0625 48.3999 28.4125 48.7749 28.85 48.7874C29.2875 48.8124 29.6625 48.4374 29.6625 47.9999ZM24.9 47.2124C24.4625 47.1999 24.0875 47.5624 24.0875 47.9999C24.0875 48.4249 24.4625 48.8124 24.8875 48.7999C25.3125 48.7999 25.65 48.4624 25.6625 48.0249C25.675 47.5624 25.35 47.2124 24.9 47.2124Z" fill="#F2ECFF"/>
<path d="M49.4 62.2999C49.45 62.0249 49.6875 61.8999 49.85 61.7249C50.7 60.8249 51.1875 59.7874 51.1875 58.5249C51.1875 52.2499 51.1875 45.9624 51.1875 39.6874C51.1875 39.5374 51.175 39.3749 51.175 39.2249C52.8375 39.0374 52.8375 39.0374 52.8375 40.6749C52.8375 46.4624 52.8375 52.2624 52.8375 58.0499C52.8375 59.7124 52.2375 61.0249 50.7625 61.8749C50.35 62.1249 49.9 62.3249 49.4 62.2999Z" fill="#C6B7ED"/>
<path d="M44.425 19.9874C43.8625 19.9999 43.3 20.0249 42.75 20.0249C40.475 20.0249 38.2 19.9999 35.925 20.0374C34.7 20.0499 33.7875 19.5999 33.2125 18.4999C33.075 18.2249 32.7 17.9499 32.85 17.6999C32.9875 17.4624 33.425 17.6124 33.725 17.6124C37.7875 17.6124 41.85 17.6124 45.925 17.6249C45.4625 18.4249 45.0125 19.2499 44.425 19.9874Z" fill="#C6B7ED"/>
<path d="M19.85 42.4248C19.45 42.9873 19.275 43.6248 19.2875 44.3123C19.3 46.4123 19.3125 48.5248 19.2875 50.6248C19.275 51.6373 19.275 52.6498 19.7625 53.5748C18.3125 53.6373 17.7125 53.0498 17.7125 51.5873C17.7125 49.1873 17.7125 46.7873 17.7125 44.3873C17.7 42.8998 18.3375 42.3123 19.85 42.4248Z" fill="#FDFDFE"/>
<path d="M60.3375 37.5624C60.8625 36.6499 60.8125 35.6624 60.8125 34.6624C60.8 32.8999 60.8 31.1499 60.8125 29.3874C60.825 28.3749 60.85 27.3624 60.3375 26.4374C61.7125 26.3249 62.4 26.9499 62.4 28.3124C62.4 30.7749 62.4 33.2374 62.4 35.6999C62.4 37.0624 61.6875 37.6999 60.3375 37.5624Z" fill="#C6B7ED"/>
<path d="M29.9375 53.575C30.4375 52.8125 30.525 51.95 30.5 51.0625C30.4875 50.1 30.525 49.125 30.4875 48.1625C30.4125 45.9375 31.4625 44.325 33.175 43.0625C33.4625 42.85 33.7625 42.65 34.05 42.4375C34.325 42.4375 34.6 42.4375 34.8875 42.4375C34.8625 42.65 34.6875 42.7 34.575 42.7875C32.95 44.1625 32.075 45.9125 32.05 48.0625C32.0375 49.2375 32.05 50.4 32.05 51.575C32.075 53.0625 31.425 53.675 29.9375 53.575Z" fill="#DFDAEB"/>
<path d="M51.1749 24.7999C51.1749 23.5624 51.2499 22.3249 51.1624 21.0999C51.0624 19.6999 50.4375 18.5374 49.2 17.7749C49.375 17.5999 49.575 17.6999 49.7625 17.7374C51.6 18.1874 52.75 19.6749 52.8125 21.7249C52.85 22.6124 52.8125 23.4999 52.825 24.3999C52.825 24.6874 52.7499 24.8374 52.4249 24.8124C52.0124 24.7874 51.5874 24.7999 51.1749 24.7999Z" fill="#C6B7ED"/>
<path d="M28.9125 55.2124C28.9125 56.3124 28.925 57.4249 28.9125 58.5249C28.9125 59.7749 29.375 60.8249 30.2375 61.7124C30.425 61.9124 30.675 62.0749 30.7875 62.3374C28.9 62.1124 27.4375 60.6249 27.3125 58.7124C27.25 57.6624 27.2875 56.5999 27.275 55.5374C27.275 55.2999 27.3375 55.1624 27.6125 55.1749C28.0375 55.2124 28.475 55.1999 28.9125 55.2124Z" fill="#FDFDFE"/>
<path d="M44.425 19.9874C45.0125 19.2499 45.4625 18.4249 45.925 17.6124C46.3 17.6124 46.6625 17.5999 47.0375 17.5999C47.225 17.5999 47.3625 17.6624 47.2375 17.8749C46.8875 18.4749 46.575 19.1124 46 19.5374C45.5375 19.8999 45 20.0124 44.425 19.9874Z" fill="#C6B7ED"/>
<path d="M29.0125 34.4749C29.3875 33.2999 29.9375 32.2249 30.85 31.3749C31.375 30.8874 31.375 30.8749 31.0375 30.2499C29.9375 28.2124 30.475 25.6749 32.3125 24.2249C34.1125 22.7999 36.725 22.8874 38.4625 24.4374C40.175 25.9624 40.55 28.5374 39.3375 30.4874C39.1375 30.8124 39.1625 30.9499 39.4375 31.1999C40.8875 32.4749 41.6375 34.0874 41.6375 36.0249C41.6375 37.3124 40.6375 38.3874 39.35 38.3999C36.625 38.4374 33.9 38.4249 31.175 38.3999C30.15 38.3874 29.4875 37.7749 29.0125 36.9124C28.775 36.0999 28.9 35.2874 29.0125 34.4749ZM35.4625 31.1624C37.0875 31.1374 38.45 29.6874 38.45 27.9999C38.45 26.3124 37.075 24.8624 35.4625 24.8374C33.6375 24.6874 32.0875 26.1249 32.0875 27.9749C32.0625 29.8624 33.6125 31.3249 35.4625 31.1624ZM37.2375 32.4249C37.175 32.4374 37.1125 32.4249 37.05 32.4499C35.6 33.0124 34.1875 32.9124 32.825 32.1374C32.6125 32.0124 32.475 32.0999 32.325 32.2124C31.125 33.1499 30.4875 34.3749 30.4875 35.9124C30.4875 36.4874 30.775 36.7874 31.35 36.7874C33.65 36.7999 35.95 36.7874 38.25 36.7749C38.4625 36.7874 38.6875 36.7999 38.9 36.7999C39.8 36.7999 40.1375 36.3999 40.0125 35.5124C39.85 34.3249 39.3625 33.3124 38.4875 32.4874C37.95 31.9749 37.8625 31.9624 37.2375 32.4249Z" fill="#512EA6"/>
<path d="M25.7 38.3749C25.7125 37.9249 26.0875 37.5874 26.525 37.6124C26.95 37.6374 27.2875 37.9874 27.2875 38.4124C27.2875 38.8499 26.925 39.1999 26.475 39.1999C26.025 39.1874 25.6875 38.8249 25.7 38.3749Z" fill="#512EA6"/>
<path d="M41.6375 53.7624C41.225 53.9999 40.8875 54.1874 40.55 54.3749C39.5375 54.9499 38.7 54.7124 38.1 53.6999C37.8625 53.2999 37.625 52.8999 37.4 52.4749C36.975 51.6749 37.2125 50.7874 37.975 50.3124C38.3625 50.0749 38.75 49.8624 39.175 49.6124C38.8375 49.2999 38.45 49.1499 38.1 48.9374C37.1625 48.3624 36.925 47.4999 37.475 46.5374C37.7125 46.1124 37.95 45.6874 38.2 45.2874C38.6875 44.5124 39.5375 44.2749 40.35 44.6999C40.75 44.9124 41.125 45.1374 41.6125 45.4124C41.6125 44.9249 41.6125 44.5124 41.6125 44.0999C41.625 43.0499 42.25 42.3999 43.3 42.3874C43.825 42.3749 44.3625 42.3749 44.8875 42.3999C45.75 42.4374 46.3625 43.0749 46.3875 43.9374C46.4 44.3124 46.4 44.6874 46.3875 45.0624C46.3875 45.2999 46.4625 45.3874 46.6875 45.2499C46.9875 45.0749 47.275 44.8999 47.575 44.7374C48.45 44.2499 49.3125 44.4749 49.8375 45.3249C50.1 45.7499 50.35 46.1874 50.5875 46.6249C51.075 47.5249 50.8375 48.3749 49.95 48.9124C49.5875 49.1249 49.225 49.3374 48.8125 49.5749C49.2375 49.8249 49.6 50.0374 49.975 50.2624C50.85 50.7999 51.075 51.6499 50.5875 52.5499C50.3625 52.9624 50.125 53.3624 49.8875 53.7624C49.3375 54.6874 48.475 54.9124 47.525 54.3749C47.175 54.1749 46.825 53.9749 46.3875 53.7249C46.3875 54.2374 46.3875 54.6624 46.3875 55.0874C46.375 56.1124 45.7375 56.7374 44.7125 56.7499C44.2 56.7499 43.6875 56.7624 43.175 56.7499C42.3 56.7249 41.65 56.0749 41.6125 55.1999C41.625 54.7874 41.6375 54.3249 41.6375 53.7624ZM43.225 45.6124C43.225 45.9499 43.225 46.2999 43.225 46.6374C43.2125 47.4874 42.625 47.8249 41.875 47.4124C41.4375 47.1749 41.0125 46.9124 40.575 46.6624C39.5375 46.0624 39.55 46.0749 38.9875 47.1374C38.8375 47.4124 38.8875 47.5374 39.15 47.6874C39.8125 48.0499 40.475 48.4374 41.1375 48.8249C41.825 49.2374 41.8125 49.9249 41.125 50.3374C40.6875 50.5999 40.2375 50.8624 39.7875 51.1124C38.775 51.6874 38.7875 51.6749 39.3625 52.6749C39.55 53.0124 39.725 53.0124 40.025 52.8374C40.6625 52.4499 41.3125 52.0749 41.9625 51.7124C42.6125 51.3499 43.2125 51.6874 43.225 52.4374C43.2375 52.9874 43.225 53.5249 43.225 54.0749C43.225 55.1999 43.225 55.1874 44.3375 55.1874C44.7 55.1874 44.8375 55.0874 44.825 54.7124C44.8 53.9624 44.8 53.2124 44.825 52.4624C44.85 51.6874 45.45 51.3499 46.125 51.7249C46.575 51.9749 47.0125 52.2374 47.4625 52.4874C48.5125 53.0999 48.5125 53.0999 49.0875 52.0249C49.225 51.7749 49.1875 51.6499 48.9375 51.5124C48.2625 51.1374 47.575 50.7499 46.9125 50.3374C46.2375 49.9249 46.25 49.2624 46.9125 48.8499C47.3625 48.5749 47.8375 48.3249 48.2875 48.0499C49.4625 47.3249 49.35 47.7374 48.6875 46.4749C48.5375 46.1874 48.375 46.1499 48.1 46.3124C47.4875 46.6874 46.8625 47.0374 46.2375 47.3874C45.4125 47.8499 44.825 47.5124 44.825 46.5624C44.825 45.8499 44.825 45.1249 44.825 44.4124C44.825 44.1874 44.7875 43.9749 44.5 44.0249C44.0875 44.0999 43.6 43.7999 43.25 44.2249C43.2 44.2749 43.2375 44.4124 43.2375 44.4999C43.225 44.8624 43.2375 45.2374 43.225 45.6124Z" fill="#512EA6"/>
<path d="M40.05 59.9874C37.1875 59.9874 34.325 59.9874 31.45 59.9874C30.85 59.9874 30.55 59.7624 30.4875 59.3249C30.425 58.8874 30.675 58.5249 31.1125 58.4249C31.275 58.3874 31.45 58.4 31.625 58.4C37.225 58.4 42.8375 58.4 48.4375 58.4C48.625 58.4 48.8125 58.3999 48.9875 58.4374C49.4 58.5499 49.6125 58.8374 49.5875 59.2624C49.5625 59.6624 49.2875 59.9374 48.8625 59.9749C48.7125 59.9874 48.55 59.9874 48.4 59.9874C45.625 59.9874 42.8375 59.9874 40.05 59.9874Z" fill="#512EA6"/>
<path d="M52.0125 31.9999C52.0125 32.4374 51.6625 32.7999 51.2125 32.7999C50.7625 32.7999 50.4125 32.4374 50.425 31.9999C50.4375 31.5749 50.775 31.2249 51.2 31.2124C51.6375 31.1874 52.0125 31.5624 52.0125 31.9999Z" fill="#512EA6"/>
<path d="M59.2 32.7875C58.7625 32.7875 58.3875 32.425 58.4 31.9875C58.4 31.5625 58.7875 31.1875 59.2125 31.2C59.6375 31.2125 59.975 31.55 59.975 31.9875C60 32.4375 59.6625 32.7875 59.2 32.7875Z" fill="#512EA6"/>
<path d="M56.0125 31.9875C56.025 32.425 55.6625 32.7875 55.2125 32.7875C54.775 32.7875 54.45 32.475 54.425 32.0375C54.4125 31.5875 54.7375 31.2125 55.175 31.2C55.6125 31.1875 56 31.55 56.0125 31.9875Z" fill="#512EA6"/>
<path d="M21.6875 48C21.6875 48.425 21.3 48.7999 20.875 48.7874C20.4375 48.7749 20.1 48.4125 20.1125 47.9625C20.125 47.525 20.45 47.2 20.8875 47.2C21.325 47.2125 21.7 47.5625 21.6875 48Z" fill="#512EA6"/>
<path d="M29.6625 48C29.6625 48.4375 29.2875 48.7999 28.85 48.7874C28.4125 48.7749 28.0625 48.3874 28.075 47.9625C28.0875 47.5375 28.4375 47.2 28.8625 47.2C29.3125 47.2 29.6625 47.5625 29.6625 48Z" fill="#512EA6"/>
<path d="M24.9 47.2125C25.35 47.225 25.675 47.575 25.6625 48.025C25.65 48.45 25.3 48.7875 24.8875 48.8C24.4625 48.8 24.075 48.425 24.0875 48C24.0875 47.55 24.45 47.2 24.9 47.2125Z" fill="#512EA6"/>
<path d="M38.2625 36.7874C35.9625 36.7874 33.6625 36.7999 31.3625 36.7999C30.7875 36.7999 30.5 36.4874 30.5 35.9249C30.5 34.3874 31.1375 33.1624 32.3375 32.2249C32.4875 32.0999 32.625 32.0249 32.8375 32.1499C34.1875 32.9249 35.6 33.0124 37.0625 32.4624C37.125 32.4374 37.1875 32.4499 37.25 32.4374C37.2875 32.6374 37.45 32.7874 37.55 32.9624C38.225 34.1374 38.7375 35.3749 38.2625 36.7874Z" fill="#C6B7ED"/>
<path d="M35.4625 31.1624C33.625 31.3124 32.075 29.8499 32.0875 27.9749C32.1 26.1249 33.65 24.6874 35.4625 24.8374C35.5 25.0249 35.6375 25.1249 35.7625 25.2499C37.0625 26.6124 37.225 28.6249 36.2 30.2124C35.975 30.5499 35.6125 30.7874 35.4625 31.1624Z" fill="#E6EBFB"/>
<path d="M35.4625 31.1625C35.625 30.775 35.975 30.55 36.2 30.2C37.225 28.6125 37.0625 26.6 35.7625 25.2375C35.65 25.1125 35.5 25.0125 35.4625 24.825C37.0875 24.85 38.45 26.3 38.45 27.9875C38.45 29.6875 37.075 31.1375 35.4625 31.1625Z" fill="#DFDAEB"/>
<path d="M38.2626 36.7874C38.7376 35.3749 38.2376 34.1374 37.5375 32.9374C37.4375 32.7624 37.2875 32.6249 37.2375 32.4124C37.8625 31.9624 37.95 31.9624 38.5 32.4874C39.375 33.3124 39.8625 34.3249 40.025 35.5124C40.15 36.3999 39.8126 36.7999 38.9125 36.7999C38.6875 36.8124 38.4751 36.7999 38.2626 36.7874Z" fill="#C6B7ED"/>
<path d="M43.2375 45.6123C43.2375 45.2373 43.2375 44.8623 43.2375 44.4873C43.2375 44.3998 43.2125 44.2623 43.25 44.2123C43.6 43.7998 44.0875 44.0874 44.5 44.0124C44.7875 43.9624 44.825 44.1748 44.825 44.3998C44.825 45.1123 44.825 45.8373 44.825 46.5498C44.8375 47.4998 45.425 47.8499 46.2375 47.3749C46.8625 47.0249 47.4875 46.6623 48.1 46.2998C48.375 46.1373 48.5375 46.1748 48.6875 46.4623C49.35 47.7248 49.475 47.3123 48.2875 48.0373C47.8375 48.3123 47.3625 48.5624 46.9125 48.8374C46.25 49.2499 46.25 49.9124 46.9125 50.3249C47.575 50.7374 48.25 51.1249 48.9375 51.4999C49.1875 51.6374 49.225 51.7624 49.0875 52.0124C48.5125 53.0874 48.5125 53.0873 47.4625 52.4748C47.0125 52.2123 46.575 51.9499 46.125 51.7124C45.45 51.3499 44.85 51.6749 44.825 52.4499C44.8 53.1999 44.8 53.9499 44.825 54.6999C44.8375 55.0749 44.6875 55.1748 44.3375 55.1748C43.225 55.1748 43.225 55.1874 43.225 54.0624C43.225 53.5124 43.2375 52.9748 43.225 52.4248C43.2 51.6873 42.6125 51.3374 41.9625 51.6999C41.3125 52.0624 40.6625 52.4374 40.025 52.8249C39.725 53.0124 39.55 52.9998 39.3625 52.6623C38.8 51.6623 38.7875 51.6748 39.7875 51.0998C40.2375 50.8498 40.6875 50.5874 41.125 50.3249C41.8125 49.9124 41.8125 49.2124 41.1375 48.8124C40.4875 48.4249 39.825 48.0373 39.15 47.6748C38.8875 47.5373 38.85 47.3999 38.9875 47.1249C39.55 46.0624 39.55 46.0623 40.575 46.6498C41.0125 46.8998 41.4375 47.1498 41.875 47.3998C42.625 47.8123 43.2125 47.4749 43.225 46.6249C43.2375 46.2999 43.225 45.9623 43.2375 45.6123Z" fill="#C6B7ED"/>
</g>
<defs>
<clipPath id="clip0_1_204">
<rect width="48" height="48" fill="white" transform="translate(16 16)"/>
</clipPath>
</defs>
</svg>
