<svg width="80" height="80" viewBox="0 0 80 80" fill="none" xmlns="http://www.w3.org/2000/svg">
<circle cx="40" cy="40" r="39.5" fill="#F6F5FB" stroke="#512EA6" stroke-linecap="round" stroke-dasharray="5 5"/>
<g clip-path="url(#clip0_1_240)">
<path d="M51.0875 16.0126C51.15 16.1001 51.25 16.0876 51.3375 16.1001C52.15 16.2626 52.5625 16.7251 52.675 17.5501C52.9 19.2001 52.475 20.7001 51.7 22.1251C50.9875 23.4376 49.975 24.5251 48.9125 25.5626C48.075 26.3876 47.25 27.2001 46.425 28.0251C46.225 28.2251 46.275 29.2376 46.4875 29.4001C46.5875 29.4751 46.6625 29.3876 46.7375 29.3626C47.65 29.0001 48.4375 29.1876 49.1375 29.8751C49.3125 30.0501 49.5 30.2126 49.675 30.4001C50.725 31.4876 50.8375 32.2876 50.075 33.6126C50.5875 33.7001 51.0875 33.7626 51.575 33.8626C57.95 35.0876 62.85 40.2376 63.725 46.6376C64.8375 54.7751 59.4 62.2626 51.3375 63.6876C43.1 65.1501 35.0875 59.5501 33.8 51.3126C32.875 45.4001 34.8375 40.5251 39.475 36.7501C39.875 36.4251 40.0625 35.9501 40.3875 35.5751C40.4875 35.4626 40.1125 34.5751 39.975 34.5501C39.8125 34.5251 39.7375 34.6751 39.6375 34.7626C38.0125 36.2251 36.325 37.6001 34.55 38.8751C33.9375 39.3251 33.3 39.7626 32.6625 40.1751C32.4625 40.3126 32.4125 40.4376 32.475 40.6751C32.675 41.4251 32.85 42.1876 33.0375 42.9376C33.0625 43.0251 33.0875 43.1251 33.1 43.2126C33.3 44.0376 32.6125 44.7876 31.7125 45.4126C31.1375 45.8126 30.425 45.6251 29.825 45.0251C27.7875 42.9876 25.75 40.9501 23.7125 38.9126C22.9375 38.1376 22.9875 37.3751 23.7 36.5376C24.425 35.7001 25.225 35.4501 26.275 35.8376C26.8125 36.0376 27.3875 36.1126 27.9375 36.2876C28.275 36.4001 28.4625 36.3126 28.675 36.0251C29.975 34.1876 31.225 32.3376 32.675 30.6126C33.1875 30.0126 33.725 29.4251 34.25 28.8251C34.2 28.7751 34.1625 28.7501 34.125 28.7251C33.6125 28.3501 33.1625 28.2126 32.575 28.7251C32.025 29.2126 31.3 29.4376 30.5875 29.6001C29.0125 29.9751 27.75 28.7126 28.125 27.1251C28.175 26.9251 28.225 26.7376 28.2875 26.5376C28.5125 25.8751 28.5125 25.8751 27.8625 25.5626C26.375 24.8126 24.8875 24.0751 23.3875 23.3251C22.225 22.7376 22.05 21.6501 22.975 20.7501C24.5 19.2251 26.2875 18.7376 28.35 19.2751C29.85 19.6626 31.35 20.0751 32.85 20.5001C33.1125 20.5751 33.275 20.5376 33.4625 20.3376C33.95 19.8251 34.45 19.3376 34.95 18.8501C35.95 17.8876 37.1625 17.9126 38.1375 18.8751C38.3875 19.1126 38.625 19.3626 38.8625 19.6001C39.525 20.2626 39.7 21.0376 39.375 21.9126C39.275 22.1751 39.3375 22.2376 39.575 22.3251C40.15 22.5376 40.5625 22.4751 41.025 21.9876C42.2625 20.6876 43.4875 19.3751 44.8625 18.2126C46.1 17.1751 47.4875 16.4251 49.075 16.0876C49.1625 16.0751 49.2625 16.0876 49.3125 15.9751C49.9 16.0126 50.4875 16.0126 51.0875 16.0126ZM60.1625 55.9501C59.9625 55.9501 59.8125 56.0626 59.6625 56.1626C58.95 56.5876 58.25 57.0126 57.55 57.4501C56.7375 57.7876 55.9 57.9876 55.0125 57.9251C53.9875 57.8501 52.975 57.1251 52.65 56.1501C52.3625 55.3001 52.475 54.4626 52.725 53.6376C53.05 52.5626 53.575 51.5626 53.85 50.4751C54.3875 48.3376 53.5625 46.9626 51.4125 46.4251C50.6875 46.2376 49.975 46.0376 49.3125 45.6751C49.0625 45.5376 48.7875 45.2501 48.55 45.2751C48.325 45.3126 48.15 45.6626 47.9375 45.8751C47.15 46.6501 46.025 46.4751 45.525 45.5001C44.775 44.0251 44.025 42.5626 43.2875 41.0876C42.875 40.2751 42.875 40.2751 42.0375 40.5376C41.9875 40.5501 41.95 40.5626 41.9 40.5751C40.65 40.9251 39.8875 40.6251 39.275 39.5251C39.0875 39.2001 38.9875 39.3751 38.8375 39.5251C37.85 40.5126 37.1125 41.6876 36.5 42.9376C36.425 43.0876 36.4375 43.2251 36.4875 43.3876C36.9125 44.8876 37.8125 45.9376 39.3625 46.3376C40.2125 46.5626 41.1 46.6876 41.925 47.0126C43.1875 47.5001 43.6875 48.7376 43.575 49.6251C43.45 50.6501 43.1375 51.6251 42.7375 52.5751C42.25 53.7376 41.9 54.9251 42.2 56.2001C42.525 57.5751 42.5375 58.9376 42.1125 60.2876C42.05 60.4876 42.1625 60.6001 42.3375 60.6876C42.95 61.0251 43.6 61.2876 44.25 61.5501C44.625 61.7001 44.875 61.6126 45.175 61.3751C46.95 59.9376 49 59.2126 51.2625 59.0751C52.8375 58.9751 54.4 59.0626 55.9375 59.4126C56.3375 59.5001 56.725 59.7751 57.15 59.4001C57.7375 58.9001 58.3125 58.3751 58.825 57.7876C59.325 57.2126 59.8375 56.6376 60.1625 55.9501C60.175 55.9501 60.1875 55.9376 60.1875 55.9376C60.1875 55.9376 60.1875 55.9251 60.2 55.9126C60.1875 55.9251 60.175 55.9376 60.1625 55.9501ZM54.225 60.7126C53.2625 60.5126 52.2875 60.5501 51.3 60.6126C49.85 60.7126 48.4875 61.1001 47.2375 61.8501C47.1125 61.9251 46.95 61.9626 46.9125 62.1626C48.1625 62.3501 49.3875 62.3501 50.6125 62.1626C51.3125 62.0501 52.025 61.9751 52.675 61.6376C53.4625 61.5751 54.125 61.1751 54.9125 60.8126C54.6125 60.6876 54.4125 60.7126 54.225 60.7126ZM54.9125 37.2376C53.8875 38.2126 52.6875 38.9126 51.4125 39.5126C50.8875 39.7626 50.3875 40.0376 49.925 40.3876C49.625 40.6126 49.5125 40.8626 49.6 41.2251C49.7375 41.8001 49.65 42.3751 49.55 42.9376C49.375 43.8876 49.3625 43.9001 50.225 44.3376C50.5625 44.5126 50.9125 44.6126 51.275 44.7126C51.7 44.8251 52.1125 44.9376 52.525 45.0876C55.025 46.0501 56.075 48.0876 55.4375 50.6876C55.225 51.5376 54.8875 52.3376 54.575 53.1501C54.3375 53.7751 54.0875 54.4001 54.075 55.0751C54.075 55.8126 54.5 56.2626 55.25 56.3126C56.0625 56.3626 56.775 56.0626 57.4625 55.6751C58.1875 55.2501 58.8875 54.7876 59.6 54.3501C60.0625 54.1751 60.5125 53.9626 60.9875 53.8126C61.25 53.7251 61.3875 53.5876 61.4875 53.3251C62.275 51.1251 62.525 48.8876 62.1375 46.5751C61.425 42.4126 59.25 39.2501 55.675 37.0376C55.3125 36.8376 55.1 36.9126 54.9125 37.2376ZM46.2125 43.3251C46.3625 43.6126 46.525 43.9001 46.6375 44.2001C46.7875 44.6001 46.95 44.5751 47.1875 44.2626C48.025 43.1876 48.2375 42.0126 47.8875 40.7001C46.8 36.7376 45.725 32.7751 44.6375 28.8251C44.45 28.1376 44.575 27.6126 45.0875 27.1001C46.5 25.6876 47.975 24.3501 49.275 22.8251C50.15 21.8001 50.875 20.6626 51.0375 19.3251C51.2375 17.6376 51.375 17.4251 49.5 17.7001C49.1875 17.7001 48.8875 17.8126 48.6 17.9126C47.1625 18.4001 46 19.3001 44.9375 20.3501C43.8125 21.4626 42.675 22.5876 41.5625 23.7251C41.125 24.1751 40.65 24.3251 40.0375 24.1376C39.0875 23.8501 38.125 23.6001 37.1625 23.3376C33.975 22.4751 30.8 21.5876 27.6125 20.7626C26.4625 20.4626 25.3875 20.7751 24.4625 21.5251C24.075 21.8376 24.075 21.8501 24.5375 22.0876C28.25 23.9501 31.975 25.8126 35.6875 27.6626C36.55 28.1001 36.6375 28.5876 35.9875 29.3001C35.3625 29.9751 34.7125 30.6251 34.1125 31.3251C32.525 33.1501 31.2125 35.1876 29.7875 37.1376C29.2125 37.9376 28.7625 38.1001 27.825 37.8626C27.05 37.6626 26.2875 37.4876 25.525 37.2751C25.2 37.1876 25.0875 37.4501 24.9125 37.6001C24.7625 37.7251 24.8875 37.8126 24.975 37.9001C26.5125 39.4251 28.05 40.9501 29.5875 42.4751C29.95 42.8501 30.3125 43.2376 30.6875 43.6001C30.8 43.7126 30.9 43.9876 31.125 43.8251C31.3375 43.6751 31.575 43.5126 31.4625 43.1501C31.2375 42.4126 31.075 41.6501 30.8875 40.9001C30.65 39.9376 30.8125 39.5126 31.6125 38.9376C32.5 38.3001 33.3875 37.6876 34.2625 37.0376C35.6125 36.0501 36.9875 35.0751 38.1875 33.9001C38.6375 33.5876 39 33.1751 39.4 32.8001C40.1375 32.0876 40.6375 32.1626 41.0875 33.0751C42.7875 36.4876 44.5 39.9126 46.2125 43.3251ZM35.625 45.4251C34.1625 50.6751 36.375 56.7001 40.6 59.5501C40.825 58.8126 40.9 58.0751 40.7375 57.3376C40.3625 55.6251 40.375 53.9501 41.1 52.3126C41.3375 51.7751 41.5375 51.2126 41.7125 50.6501C42.225 49.0001 41.95 48.5001 40.2375 48.2001C38.3875 47.8501 36.65 47.3501 35.625 45.4251ZM49.25 35.1751C49.1125 35.1751 48.975 35.1751 48.825 35.1751C48.3 35.1876 48.125 35.4126 48.25 35.9001C48.4875 36.8001 48.725 37.7001 48.9625 38.6001C49.025 38.8376 49.0875 39.0251 49.4 38.8251C50.1375 38.3501 50.95 38.0376 51.7125 37.6126C52.35 37.2626 52.975 36.8751 53.5 36.3626C53.6875 36.1751 53.65 36.1001 53.4125 36.0251C52.0625 35.5626 50.6875 35.2126 49.25 35.1751ZM37.9625 21.1501C37.9375 21.1001 37.9375 20.9876 37.875 20.9251C37.55 20.5251 37.1875 20.1626 36.7875 19.8376C36.575 19.6626 36.3375 19.7376 36.15 19.9251C35.8375 20.2251 35.5375 20.5501 35.225 20.8501C35.05 21.0251 35.05 21.1126 35.3125 21.1751C35.9875 21.3501 36.6625 21.5501 37.3375 21.7251C37.6375 21.7876 37.9625 21.5001 37.9625 21.1501ZM47.525 30.8001C47.225 30.8126 46.9375 31.1001 47 31.3751C47.175 32.0751 47.3625 32.7876 47.55 33.4876C47.6 33.6876 47.6875 33.7001 47.825 33.5501C48.1375 33.2251 48.4625 32.9126 48.7625 32.5876C49 32.3376 49 32.0501 48.75 31.8001C48.4875 31.5251 48.2125 31.2501 47.925 30.9751C47.825 30.8626 47.6875 30.7876 47.525 30.8001ZM41.325 37.1001C41 37.5751 40.8375 38.0126 40.725 38.4876C40.6625 38.7501 40.675 38.9876 40.9875 39.0876C41.1875 39.1501 42.0625 38.8501 42.0875 38.7126C42.1 38.6626 42.0625 38.5876 42.0375 38.5376C41.8125 38.0876 41.5875 37.6251 41.325 37.1001ZM29.65 27.5251C29.65 27.9251 29.8125 28.1001 30.1125 28.0501C30.5625 27.9751 30.975 27.8001 31.375 27.5876C31.5375 27.5001 31.5875 27.4126 31.3875 27.3001C31 27.1126 30.6125 26.9126 30.225 26.7126C30.075 26.6376 29.95 26.6376 29.8875 26.8251C29.8 27.0751 29.7125 27.3501 29.65 27.5251Z" fill="#512EA6"/>
<path d="M16.2875 48.1876C16.3375 44.4251 17.5 40.8626 19.3625 37.5001C20.3125 35.7876 21.4375 34.2001 22.75 32.7626C23.175 32.3001 23.6375 32.2376 24.0125 32.5751C24.3625 32.9001 24.3375 33.3876 23.925 33.8501C21.125 37.0376 19.2 40.6751 18.3 44.8251C17.65 47.8251 17.725 50.8001 19 53.6626C20.175 56.3126 22.175 58.2126 24.6125 59.6751C25.275 60.0751 25.9875 60.4126 26.675 60.7626C27.1125 60.9876 27.25 61.4251 27.0375 61.8251C26.8375 62.2126 26.4125 62.3876 26.0125 62.2001C22.8875 60.7751 20.1875 58.8251 18.35 55.8626C16.925 53.5501 16.325 51.0001 16.2875 48.1876Z" fill="#512EA6"/>
<path d="M24.825 43.1377C25.1 43.1502 25.35 43.2877 25.4875 43.5752C25.65 43.9377 25.575 44.2627 25.3 44.5627C24.525 45.3627 24.0125 46.3127 23.7625 47.4002C23.175 49.9502 23.775 52.2752 25.15 54.4252C26.1 55.9127 27.35 57.1127 28.7875 58.1377C28.9375 58.2502 29.1 58.3502 29.2375 58.4627C29.5875 58.7627 29.6625 59.1877 29.4125 59.5502C29.1625 59.9127 28.7 60.0002 28.3 59.7377C27.6 59.2752 26.925 58.7627 26.3 58.2002C24.0875 56.1877 22.5 53.7752 22.05 50.7502C21.65 48.0502 22.2125 45.5877 24.1 43.5127C24.35 43.2377 24.5375 43.1502 24.825 43.1377Z" fill="#512EA6"/>
<path d="M29.5874 47.1501C29.9499 47.1501 30.1624 47.3126 30.2999 47.5751C30.4624 47.8876 30.4249 48.1751 30.2124 48.4501C29.7999 48.9876 29.4749 49.5626 29.3749 50.2501C29.1624 51.6626 29.5999 52.9251 30.2249 54.1376C30.5749 54.8251 31.0374 55.4251 31.5874 55.9626C31.6749 56.0501 31.7624 56.1376 31.8374 56.2376C32.0874 56.5876 32.0499 57.0126 31.7499 57.3001C31.4374 57.5876 30.9999 57.6251 30.6999 57.3251C28.4749 55.0751 27.2624 52.4626 27.9999 49.2251C28.1499 48.5626 28.4374 47.9626 28.9374 47.4876C29.1249 47.2876 29.3499 47.1376 29.5874 47.1501Z" fill="#512EA6"/>
<path d="M25.5875 30.3877C26.05 30.3877 26.4 30.7377 26.3875 31.1752C26.375 31.6002 25.9875 31.9877 25.575 31.9752C25.1625 31.9627 24.8125 31.6002 24.8 31.1877C24.7875 30.7377 25.125 30.3877 25.5875 30.3877Z" fill="#512EA6"/>
<path d="M29.575 42.4752C28.0375 40.9502 26.5 39.4252 24.9625 37.9002C24.875 37.8127 24.75 37.7252 24.9 37.6002C25.075 37.4502 25.1875 37.1877 25.5125 37.2752C26.275 37.4877 27.05 37.6627 27.8125 37.8627C28.75 38.1002 29.2 37.9377 29.775 37.1377C31.2 35.1877 32.5125 33.1502 34.1 31.3252C34.7 30.6252 35.35 29.9752 35.975 29.3002C36.6375 28.6002 36.55 28.1002 35.675 27.6627C31.9625 25.8002 28.25 23.9502 24.5375 22.0877C24.075 21.8627 24.075 21.8502 24.4625 21.5252C25.3875 20.7752 26.4625 20.4627 27.6125 20.7627C30.8 21.5877 33.975 22.4752 37.1625 23.3377C38.125 23.6002 39.0875 23.8502 40.0375 24.1377C40.65 24.3252 41.125 24.1627 41.5625 23.7252C42.675 22.5877 43.8 21.4752 44.9375 20.3502C46 19.3002 47.1625 18.4002 48.6 17.9127C48.8875 17.8127 49.1875 17.7002 49.5 17.7002C49.475 18.2752 49.55 18.8502 49.4375 19.4252C49.0875 21.2627 48.0875 22.7377 46.825 24.0627C45.6125 25.3127 44.4 26.5627 43.175 27.8002C42.975 28.0002 42.9125 28.1877 43 28.4627C43.175 29.0502 43.325 29.6627 43.4875 30.2627C44.45 33.7752 45.4125 37.2877 46.3625 40.8002C46.5875 41.6502 46.6125 42.5127 46.225 43.3377C44.5125 39.9252 42.8 36.5002 41.1 33.0877C40.65 32.1752 40.15 32.1002 39.4125 32.8127C39.025 33.1877 38.6625 33.6002 38.2 33.9127C38.1375 33.7752 38.05 33.6377 38 33.4877C37.875 33.1502 37.7375 33.1377 37.5 33.4002C37.1125 33.8252 36.7125 34.2502 36.275 34.6127C34.1375 36.4002 31.95 38.1252 29.6125 39.6502C29.2375 39.9002 29.15 40.2002 29.2625 40.6002C29.4 41.0877 29.5125 41.5877 29.6375 42.0877C29.65 42.2252 29.7125 42.3627 29.575 42.4752Z" fill="#FDFDFE"/>
<path d="M55.9375 59.3876C54.4 59.0376 52.825 58.9501 51.2625 59.0501C49 59.1876 46.95 59.9251 45.175 61.3501C44.8875 61.5876 44.625 61.6751 44.25 61.5251C43.6 61.2626 42.9625 61.0001 42.3375 60.6626C42.1625 60.5751 42.05 60.4626 42.1125 60.2626C42.5375 58.9126 42.5125 57.5501 42.2 56.1751C41.9 54.9001 42.25 53.7126 42.7375 52.5501C43.1375 51.6001 43.4375 50.6251 43.575 49.6001C43.6875 48.7251 43.1875 47.4751 41.925 46.9876C41.1 46.6626 40.2125 46.5376 39.3625 46.3126C37.8125 45.9126 36.9125 44.8626 36.4875 43.3626C36.45 43.2126 36.425 43.0751 36.5 42.9126C37.125 41.6626 37.85 40.5001 38.8375 39.5001C38.9875 39.3626 39.0875 39.1751 39.275 39.5001C39.8875 40.6001 40.65 40.9001 41.9 40.5501C41.95 40.5376 41.9875 40.5251 42.0375 40.5126C42.875 40.2501 42.875 40.2501 43.2875 41.0626C44.0375 42.5376 44.775 44.0126 45.525 45.4751C46.025 46.4501 47.15 46.6251 47.9375 45.8501C48.15 45.6501 48.325 45.2876 48.55 45.2501C48.775 45.2126 49.05 45.5001 49.3125 45.6501C49.975 46.0251 50.6875 46.2251 51.4125 46.4001C53.5625 46.9376 54.375 48.3251 53.85 50.4501C53.575 51.5376 53.05 52.5376 52.725 53.6126C52.475 54.4501 52.3625 55.2876 52.65 56.1251C52.9875 57.1001 53.9875 57.8251 55.0125 57.9001C55.9125 57.9626 56.7375 57.7626 57.55 57.4251C57.3625 57.8376 57.025 58.1376 56.7375 58.4751C56.475 58.8001 56.1 59.0001 55.9375 59.3876Z" fill="#C6B7ED"/>
<path d="M59.6 54.3625C58.8875 54.8125 58.1875 55.2625 57.4625 55.6875C56.7875 56.0875 56.0625 56.375 55.25 56.325C54.5125 56.2875 54.075 55.825 54.075 55.0875C54.075 54.4 54.325 53.775 54.575 53.1625C54.8875 52.35 55.225 51.55 55.4375 50.7C56.075 48.1 55.025 46.0625 52.525 45.1C52.125 44.95 51.7 44.8375 51.275 44.725C50.9125 44.625 50.5625 44.525 50.225 44.35C49.3625 43.9125 49.375 43.9 49.55 42.95C49.65 42.3875 49.7375 41.8125 49.6 41.2375C49.5125 40.875 49.625 40.625 49.925 40.4C50.3875 40.05 50.8875 39.775 51.4125 39.525C52.6875 38.925 53.8875 38.225 54.9125 37.25C55.9 37.8125 56.65 38.6625 57.3625 39.5C58.9 41.3125 59.8875 43.425 60.3875 45.7625C60.7875 47.6375 60.8 49.5 60.45 51.3875C60.275 52.4 59.9 53.3625 59.6 54.3625Z" fill="#E7ECFB"/>
<path d="M35.625 45.425C36.65 47.35 38.3875 47.8375 40.25 48.1875C41.9625 48.5 42.2375 49.0001 41.725 50.6376C41.55 51.2001 41.35 51.7625 41.1125 52.3C40.3875 53.9375 40.375 55.6126 40.75 57.3251C40.9125 58.0626 40.8375 58.8125 40.6125 59.5375C36.375 56.7 34.1625 50.675 35.625 45.425Z" fill="#E6EBFB"/>
<path d="M46.2124 43.325C46.5999 42.5 46.5875 41.6375 46.35 40.7875C45.4 37.275 44.425 33.7625 43.475 30.25C43.3125 29.65 43.1624 29.05 42.9874 28.45C42.8999 28.175 42.9625 27.9875 43.1625 27.7875C44.3875 26.55 45.6 25.3 46.8125 24.05C48.075 22.725 49.0749 21.25 49.4249 19.4125C49.5374 18.8375 49.4624 18.2625 49.4874 17.6875C51.3624 17.4125 51.225 17.625 51.025 19.3125C50.8625 20.6625 50.1375 21.8 49.2625 22.8125C47.9625 24.325 46.4875 25.675 45.075 27.0875C44.5625 27.6 44.4375 28.125 44.625 28.8125C45.725 32.775 46.7875 36.7375 47.875 40.6875C48.2375 42 48.0124 43.175 47.1749 44.25C46.9374 44.5625 46.775 44.575 46.625 44.1875C46.525 43.9 46.3624 43.625 46.2124 43.325Z" fill="#C6B7ED"/>
<path d="M59.6 54.3626C59.9 53.3751 60.275 52.4001 60.4625 51.3751C60.8125 49.4876 60.8 47.6251 60.4 45.7501C59.9 43.4126 58.9 41.3126 57.375 39.4876C56.6625 38.6501 55.9125 37.7876 54.925 37.2376C55.1125 36.9126 55.3125 36.8251 55.675 37.0501C59.2625 39.2626 61.4375 42.4251 62.1375 46.5876C62.525 48.9001 62.275 51.1376 61.4875 53.3376C61.4 53.6001 61.2625 53.7376 60.9875 53.8251C60.5125 53.9751 60.0625 54.1751 59.6 54.3626Z" fill="#C6B7ED"/>
<path d="M29.5749 42.4751C29.7124 42.3626 29.6499 42.2251 29.6124 42.0876C29.4874 41.5876 29.3749 41.1001 29.2374 40.6001C29.1249 40.2001 29.2124 39.9001 29.5874 39.6501C31.9249 38.1126 34.1124 36.4001 36.2499 34.6126C36.6874 34.2501 37.0874 33.8126 37.4749 33.4001C37.7124 33.1376 37.8624 33.1501 37.9749 33.4876C38.0249 33.6376 38.1124 33.7626 38.1749 33.9126C36.9749 35.1001 35.5999 36.0626 34.2499 37.0501C33.3749 37.6876 32.4749 38.3126 31.5999 38.9501C30.7999 39.5251 30.6374 39.9501 30.8749 40.9126C31.0624 41.6626 31.2249 42.4251 31.4499 43.1626C31.5624 43.5376 31.3249 43.6876 31.1124 43.8376C30.8874 44.0001 30.7999 43.7251 30.6749 43.6126C30.2999 43.2376 29.9499 42.8501 29.5749 42.4751Z" fill="#C6B7ED"/>
<path d="M49.25 35.175C50.6875 35.2 52.075 35.5625 53.425 36.025C53.65 36.1 53.6875 36.175 53.5125 36.3625C52.9875 36.8875 52.3625 37.2625 51.725 37.6125C50.9625 38.025 50.15 38.3501 49.4125 38.8251C49.1125 39.0251 49.0375 38.825 48.975 38.6C48.7375 37.7 48.5 36.8 48.2625 35.9C48.1375 35.4 48.3125 35.175 48.8375 35.175C48.9625 35.175 49.1125 35.175 49.25 35.175Z" fill="#E7ECFB"/>
<path d="M52.675 61.6376C52.025 61.9751 51.3125 62.0501 50.6125 62.1626C49.3875 62.3501 48.175 62.3501 46.9125 62.1626C46.95 61.9751 47.1125 61.9251 47.2375 61.8501C48.4875 61.0876 49.8375 60.7001 51.3 60.6126C52.275 60.5501 53.25 60.5001 54.225 60.7126C53.75 61.1001 53.1875 61.3376 52.675 61.6376Z" fill="#E3EAFA"/>
<path d="M55.9375 59.3875C56.1 59 56.475 58.8 56.725 58.4875C57.0125 58.15 57.35 57.85 57.5375 57.4375C58.2375 57.0125 58.95 56.575 59.65 56.15C59.8 56.0625 59.9625 55.95 60.15 55.9375C59.825 56.6375 59.3125 57.2 58.825 57.7625C58.3125 58.35 57.7375 58.8625 57.15 59.375C56.725 59.75 56.3375 59.475 55.9375 59.3875Z" fill="#DCD7E9"/>
<path d="M37.9625 21.1501C37.9625 21.4876 37.625 21.7876 37.35 21.7126C36.675 21.5376 36 21.3376 35.325 21.1626C35.0625 21.1001 35.05 21.0126 35.2375 20.8376C35.55 20.5376 35.85 20.2126 36.1625 19.9126C36.35 19.7251 36.5875 19.6626 36.8 19.8251C37.2 20.1501 37.5625 20.5126 37.8875 20.9126C37.9375 21.0001 37.95 21.1001 37.9625 21.1501Z" fill="#E4EAFB"/>
<path d="M47.525 30.8C47.6875 30.8 47.825 30.8625 47.9375 30.975C48.2125 31.25 48.4875 31.5125 48.7625 31.8C49 32.05 49.0125 32.3375 48.775 32.5875C48.475 32.9125 48.15 33.225 47.8375 33.55C47.7 33.7 47.6125 33.675 47.5625 33.4875C47.375 32.7875 47.1875 32.0875 47.0125 31.375C46.9375 31.1 47.2125 30.8 47.525 30.8Z" fill="#E4EAFB"/>
<path d="M41.325 37.1001C41.5875 37.6251 41.8125 38.0876 42.0375 38.5376C42.0625 38.5876 42.0875 38.6501 42.0875 38.7126C42.0625 38.8501 41.1875 39.1501 40.9875 39.0876C40.675 38.9876 40.6625 38.7501 40.725 38.4876C40.825 38.0251 41 37.5751 41.325 37.1001Z" fill="#E3EAFA"/>
<path d="M29.65 27.525C29.7125 27.3375 29.8 27.075 29.8875 26.8125C29.95 26.6375 30.075 26.625 30.225 26.7C30.6125 26.9 31 27.1 31.3875 27.2875C31.6 27.3875 31.5375 27.4875 31.375 27.575C30.975 27.7875 30.5625 27.9625 30.1125 28.0375C29.8125 28.1 29.6625 27.925 29.65 27.525Z" fill="#E3EAFA"/>
<path d="M60.1625 55.9509C60.1752 55.9381 60.188 55.9254 60.2008 55.9126C60.2008 55.9254 60.2008 55.9381 60.188 55.9381C60.1752 55.9381 60.1625 55.9381 60.1625 55.9509Z" fill="#7DABF9"/>
</g>
<defs>
<clipPath id="clip0_1_240">
<rect width="48" height="48" fill="white" transform="translate(16 16)"/>
</clipPath>
</defs>
</svg>
