<svg width="260" height="82" viewBox="0 0 260 82" fill="none" xmlns="http://www.w3.org/2000/svg">
<path d="M251.875 81.5625H8.12488C3.65613 81.5625 -0.00012207 77.8922 -0.00012207 73.4062V8.15625C-0.00012207 3.67031 3.65613 0 8.12488 0H251.875C256.344 0 260 3.67031 260 8.15625V73.4062C260 77.8922 256.344 81.5625 251.875 81.5625Z" fill="white"/>
<path d="M54.8438 40.3733C54.8438 34.0522 60.1251 30.9936 60.3282 30.7897C57.2813 26.5077 52.8126 25.896 51.1876 25.6921C47.3282 25.2843 43.4688 27.935 41.6407 27.935C39.6094 27.935 36.5626 25.6921 33.3126 25.6921C29.0469 25.6921 25.1876 28.1389 22.9532 32.0132C18.4844 39.7616 21.7344 51.1803 26.0001 57.5014C28.2344 60.56 30.672 64.0264 33.922 63.8225C37.172 63.6186 38.3907 61.7835 42.2501 61.7835C46.1095 61.7835 47.1251 63.8225 50.5782 63.8225C54.0313 63.8225 56.2657 60.7639 58.297 57.7053C60.7345 54.2389 61.7501 50.7725 61.7501 50.5686C61.5469 50.3647 54.8438 47.9178 54.8438 40.3733Z" fill="#3F434A"/>
<path d="M48.5466 21.6143C50.1716 19.3713 51.3903 16.5166 51.1872 13.458C48.7497 13.6619 45.4997 15.0893 43.8747 17.3322C42.2497 19.1674 40.8278 22.226 41.2341 25.0807C43.8747 25.2846 46.7184 23.6533 48.5466 21.6143Z" fill="#3F434A"/>
<path d="M101.156 63.4147H96.6874L94.2499 55.6663H85.7186L83.4843 63.4147H79.2186L87.7499 37.1108H93.0311L101.156 63.4147ZM93.4374 52.4038L91.203 45.471C90.9999 44.8593 90.5936 43.0241 89.7811 40.5772C89.578 41.5968 89.1718 43.4319 88.5624 45.471L86.328 52.4038H93.4374Z" fill="#3F434A"/>
<path d="M122.891 53.8312C122.891 57.0937 122.078 59.5405 120.25 61.5796C118.625 63.2108 116.797 64.0265 114.359 64.0265C111.922 64.0265 110.094 63.2108 109.078 61.3757V71.3671H104.812V50.9765C104.812 48.9374 104.812 46.8983 104.609 44.6554H108.266L108.469 47.714C109.891 45.471 111.922 44.2476 114.766 44.2476C117 44.2476 118.828 45.0632 120.25 46.8983C122.078 48.5296 122.891 50.7726 122.891 53.8312ZM118.625 53.8312C118.625 51.996 118.219 50.3647 117.406 49.3452C116.594 48.1218 115.375 47.5101 113.75 47.5101C112.734 47.5101 111.719 47.9179 110.906 48.5296C110.094 49.1413 109.484 50.1608 109.281 51.1804C109.078 51.7921 109.078 52.1999 109.078 52.4038V55.6663C109.078 57.0937 109.484 58.1132 110.297 59.1327C111.109 60.1522 112.328 60.5601 113.547 60.5601C115.172 60.5601 116.391 59.9483 117.203 58.7249C118.219 57.5015 118.625 55.8702 118.625 53.8312Z" fill="#3F434A"/>
<path d="M144.625 53.8312C144.625 57.0937 143.812 59.5405 141.984 61.5796C140.359 63.2108 138.531 64.0265 136.094 64.0265C133.656 64.0265 131.828 63.2108 130.812 61.3757V71.3671H126.547V50.9765C126.547 48.9374 126.547 46.8983 126.344 44.6554H130L130.203 47.714C131.625 45.471 133.656 44.2476 136.5 44.2476C138.734 44.2476 140.562 45.0632 141.984 46.8983C143.812 48.5296 144.625 50.7726 144.625 53.8312ZM140.359 53.8312C140.359 51.996 139.953 50.3647 139.14 49.3452C138.328 48.1218 137.109 47.5101 135.484 47.5101C134.469 47.5101 133.453 47.9179 132.641 48.5296C131.828 49.1413 131.219 50.1608 131.015 51.1804C130.812 51.7921 130.812 52.1999 130.812 52.4038V55.6663C130.812 57.0937 131.219 58.1132 132.031 59.1327C132.844 60.1522 134.062 60.5601 135.281 60.5601C136.906 60.5601 138.125 59.9483 138.937 58.7249C139.953 57.5015 140.359 55.8702 140.359 53.8312Z" fill="#3F434A"/>
<path d="M169 56.0744C169 58.3174 168.187 60.1525 166.766 61.5799C165.141 63.2111 162.703 63.8228 159.656 63.8228C156.812 63.8228 154.578 63.2111 152.953 62.1916L153.969 58.7252C155.797 59.7447 157.828 60.3564 160.062 60.3564C161.687 60.3564 162.906 59.9486 163.719 59.3369C164.531 58.5213 164.937 57.7057 164.937 56.4822C164.937 55.4627 164.531 54.4432 163.922 53.8314C163.109 53.0158 161.89 52.4041 160.265 51.7924C155.594 50.1611 153.359 47.5104 153.359 44.2479C153.359 42.0049 154.172 40.3736 155.797 38.9463C157.422 37.5189 159.453 36.9072 162.297 36.9072C164.734 36.9072 166.562 37.315 168.187 38.1307L167.172 41.5971C165.75 40.7815 164.125 40.3736 162.094 40.3736C160.672 40.3736 159.453 40.7814 158.641 41.3932C158.031 42.0049 157.625 42.8205 157.625 43.84C157.625 44.8596 158.031 45.6752 158.844 46.4908C159.453 47.1025 160.875 47.7143 162.703 48.5299C164.937 49.3455 166.562 50.5689 167.781 51.7924C168.391 52.8119 169 54.2393 169 56.0744Z" fill="#3F434A"/>
<path d="M182.812 47.7141H178.14V56.8899C178.14 59.1328 178.953 60.3563 180.578 60.3563C181.391 60.3563 182 60.3563 182.406 60.1524L182.609 63.4148C181.797 63.8227 180.781 63.8227 179.359 63.8227C177.734 63.8227 176.312 63.4148 175.5 62.3953C174.484 61.3758 174.078 59.7445 174.078 57.2977V47.7141H171.234V44.4516H174.078V40.9852L178.14 39.7617V44.4516H182.812V47.7141Z" fill="#3F434A"/>
<path d="M203.734 53.8314C203.734 56.6861 202.922 59.133 201.297 60.9682C199.469 62.8033 197.234 63.8228 194.391 63.8228C191.547 63.8228 189.312 62.8033 187.687 60.9682C186.062 59.133 185.25 56.89 185.25 54.0354C185.25 51.1807 186.062 48.7338 187.891 46.8986C189.516 45.0635 191.953 44.0439 194.797 44.0439C197.641 44.0439 199.875 45.0635 201.5 46.8986C202.922 48.7338 203.734 50.9768 203.734 53.8314ZM199.266 54.0354C199.266 52.2002 198.859 50.7729 198.047 49.5494C197.234 48.1221 195.812 47.3064 194.187 47.3064C192.562 47.3064 191.141 48.1221 190.328 49.5494C189.516 50.7729 189.109 52.4041 189.109 54.0354C189.109 55.8705 189.516 57.2979 190.328 58.5213C191.141 59.9486 192.562 60.7643 194.187 60.7643C195.812 60.7643 197.031 59.9486 198.047 58.5213C198.859 57.2979 199.266 55.6666 199.266 54.0354Z" fill="#3F434A"/>
<path d="M217.343 48.1219C216.937 48.1219 216.531 47.918 215.921 47.918C214.5 47.918 213.281 48.5297 212.468 49.5492C211.859 50.5687 211.453 51.7922 211.453 53.2195V63.2109H207.187V50.1609C207.187 47.918 207.187 46.0828 206.984 44.2477H210.64L210.843 47.918H211.047C211.453 46.6945 212.265 45.675 213.078 44.8594C214.093 44.2477 215.109 43.8398 216.125 43.8398C216.531 43.8398 216.937 43.8398 217.14 43.8398V48.1219H217.343Z" fill="#3F434A"/>
<path d="M236.031 53.0158C236.031 53.8314 236.031 54.4432 235.828 54.851H223.234C223.234 56.6861 223.843 58.1135 225.062 59.133C226.078 59.9486 227.5 60.5604 229.125 60.5604C230.953 60.5604 232.781 60.3564 234.203 59.7447L234.812 62.5994C232.984 63.415 230.953 63.8228 228.515 63.8228C225.671 63.8228 223.234 63.0072 221.609 61.1721C219.984 59.5408 219.172 57.0939 219.172 54.2393C219.172 51.3846 219.984 48.9377 221.406 47.1025C223.031 45.0635 225.265 44.0439 228.109 44.0439C230.75 44.0439 232.984 45.0635 234.203 47.1025C235.625 48.7338 236.031 50.7729 236.031 53.0158ZM232.171 51.9963C232.171 50.7729 231.968 49.7533 231.359 48.7338C230.547 47.5104 229.531 46.8986 228.109 46.8986C226.687 46.8986 225.671 47.5104 224.859 48.5299C224.25 49.3455 223.843 50.5689 223.64 51.7924H232.171V51.9963Z" fill="#3F434A"/>
<path d="M92.2186 21.0024C92.2186 23.2454 91.6092 25.0806 90.1874 26.304C88.9686 27.3235 87.1405 27.9353 84.703 27.9353C83.4843 27.9353 82.4686 27.9353 81.6561 27.7313V15.0892C82.6718 14.8853 83.8905 14.8853 85.3124 14.8853C87.5467 14.8853 89.1717 15.2931 90.3905 16.3126C91.4061 17.3321 92.2186 18.9634 92.2186 21.0024ZM89.9843 21.0024C89.9843 19.5751 89.578 18.3517 88.7655 17.536C87.953 16.7204 86.7342 16.3126 85.3124 16.3126C84.703 16.3126 84.0936 16.3126 83.6874 16.5165V26.1001C83.8905 26.1001 84.4999 26.1001 85.1092 26.1001C86.7342 26.1001 87.953 25.6923 88.7655 24.8767C89.578 24.061 89.9843 22.6337 89.9843 21.0024Z" fill="#3F434A"/>
<path d="M103.594 23.0412C103.594 24.4686 103.187 25.692 102.375 26.5076C101.562 27.5272 100.344 27.935 98.9218 27.935C97.4999 27.935 96.4843 27.5272 95.6718 26.5076C94.8593 25.692 94.453 24.4686 94.453 23.0412C94.453 21.6139 94.8593 20.3904 95.6718 19.5748C96.4843 18.5553 97.703 18.1475 99.1249 18.1475C100.547 18.1475 101.562 18.5553 102.375 19.5748C103.187 20.3904 103.594 21.6139 103.594 23.0412ZM101.562 23.0412C101.562 22.2256 101.359 21.41 100.953 20.7982C100.547 19.9826 99.9374 19.7787 99.1249 19.7787C98.3124 19.7787 97.703 20.1865 97.2968 20.7982C96.8905 21.41 96.6874 22.2256 96.6874 23.0412C96.6874 23.8568 96.8905 24.6725 97.2968 25.2842C97.703 26.0998 98.3124 26.3037 99.1249 26.3037C99.9374 26.3037 100.547 25.8959 100.953 25.0803C101.359 24.6725 101.562 23.8568 101.562 23.0412Z" fill="#3F434A"/>
<path d="M119.234 18.3516L116.39 27.7312H114.562L113.344 23.6531C112.937 22.6336 112.734 21.6141 112.531 20.5945C112.328 21.6141 112.125 22.6336 111.719 23.6531L110.5 27.7312H108.672L105.625 18.3516H107.656L108.672 22.8375C108.875 23.857 109.078 24.8766 109.281 25.8961C109.484 25.0805 109.687 24.0609 110.094 22.8375L111.312 18.3516H112.937L114.156 22.6336C114.562 23.6531 114.766 24.6727 114.969 25.6922C115.172 24.6727 115.375 23.6531 115.578 22.6336L116.797 18.3516H119.234Z" fill="#3F434A"/>
<path d="M129.797 27.7313H127.765V22.4298C127.765 20.7985 127.156 19.9829 125.937 19.9829C125.328 19.9829 124.922 20.1868 124.516 20.5946C124.109 21.0024 123.906 21.6142 123.906 22.2259V27.7313H121.875V21.0024C121.875 20.1868 121.875 19.3712 121.875 18.3517H123.703V19.779C123.906 19.3712 124.312 18.9634 124.719 18.5556C125.328 18.1478 125.937 17.9438 126.547 17.9438C127.359 17.9438 128.172 18.1478 128.781 18.7595C129.594 19.3712 129.797 20.3907 129.797 21.8181V27.7313Z" fill="#3F434A"/>
<path d="M135.484 27.731H133.453V14.0693H135.484V27.731Z" fill="#3F434A"/>
<path d="M147.672 23.0412C147.672 24.4686 147.266 25.692 146.453 26.5076C145.641 27.5272 144.422 27.935 143 27.935C141.578 27.935 140.562 27.5272 139.75 26.5076C138.937 25.692 138.531 24.4686 138.531 23.0412C138.531 21.6139 138.937 20.3904 139.75 19.5748C140.562 18.7592 141.781 18.1475 143.203 18.1475C144.625 18.1475 145.641 18.5553 146.453 19.5748C147.266 20.3904 147.672 21.6139 147.672 23.0412ZM145.641 23.0412C145.641 22.2256 145.437 21.41 145.031 20.7982C144.625 19.9826 144.015 19.7787 143.203 19.7787C142.39 19.7787 141.781 20.1865 141.375 20.7982C140.969 21.41 140.765 22.2256 140.765 23.0412C140.765 23.8568 140.969 24.6725 141.375 25.2842C141.781 26.0998 142.39 26.3037 143.203 26.3037C144.015 26.3037 144.625 25.8959 145.031 25.0803C145.437 24.6725 145.641 23.8568 145.641 23.0412Z" fill="#3F434A"/>
<path d="M157.625 27.7311H155.797L155.593 26.7115C154.984 27.5271 153.968 27.935 152.953 27.935C152.14 27.935 151.328 27.7311 150.922 27.1193C150.515 26.5076 150.109 25.8959 150.109 25.2842C150.109 24.0607 150.515 23.2451 151.531 22.6334C152.547 22.0217 153.765 21.8178 155.593 21.8178V21.6139C155.593 20.3904 154.984 19.7787 153.765 19.7787C152.75 19.7787 152.14 19.9826 151.328 20.3904L150.922 18.9631C151.734 18.3514 152.75 18.1475 154.172 18.1475C156.609 18.1475 157.828 19.3709 157.828 22.0217V25.4881C157.625 26.5076 157.625 27.1193 157.625 27.7311ZM155.593 24.4686V23.0412C153.359 23.0412 152.14 23.6529 152.14 24.8764C152.14 25.2842 152.343 25.692 152.547 25.8959C152.75 26.0998 153.156 26.3037 153.562 26.3037C153.968 26.3037 154.375 26.0998 154.781 25.8959C155.187 25.692 155.39 25.2842 155.593 24.8764C155.593 24.8764 155.593 24.6725 155.593 24.4686Z" fill="#3F434A"/>
<path d="M169.406 27.7313H167.578V26.3039C166.969 27.5273 165.953 27.9352 164.531 27.9352C163.313 27.9352 162.5 27.5273 161.688 26.7117C160.875 25.8961 160.672 24.6727 160.672 23.2453C160.672 21.818 161.078 20.5945 161.891 19.575C162.703 18.7594 163.719 18.3516 164.734 18.3516C165.953 18.3516 166.766 18.7594 167.375 19.575V14.2734H169.406V25.2844C169.406 26.1 169.406 26.9156 169.406 27.7313ZM167.375 23.857V22.2258C167.375 22.0219 167.375 21.818 167.375 21.6141C167.172 21.2063 166.969 20.7984 166.563 20.3906C166.156 19.9828 165.75 19.9828 165.141 19.9828C164.328 19.9828 163.719 20.3906 163.313 21.0023C162.906 21.6141 162.703 22.4297 162.703 23.4492C162.703 24.4688 162.906 25.0805 163.313 25.6922C163.719 26.3039 164.328 26.7117 165.141 26.7117C165.75 26.7117 166.359 26.5078 166.766 25.8961C167.172 25.0805 167.375 24.4688 167.375 23.857Z" fill="#3F434A"/>
<path d="M187.078 23.0412C187.078 24.4686 186.672 25.692 185.859 26.5076C185.047 27.5272 183.828 27.935 182.406 27.935C180.984 27.935 179.969 27.5272 179.156 26.5076C178.344 25.692 177.938 24.4686 177.938 23.0412C177.938 21.6139 178.344 20.3904 179.156 19.5748C179.969 18.5553 181.188 18.1475 182.61 18.1475C184.031 18.1475 185.047 18.5553 185.859 19.5748C186.672 20.3904 187.078 21.6139 187.078 23.0412ZM184.844 23.0412C184.844 22.2256 184.641 21.41 184.234 20.7982C183.828 19.9826 183.219 19.7787 182.406 19.7787C181.594 19.7787 180.985 20.1865 180.578 20.7982C180.172 21.41 179.969 22.2256 179.969 23.0412C179.969 23.8568 180.172 24.6725 180.578 25.2842C180.985 26.0998 181.594 26.3037 182.406 26.3037C183.219 26.3037 183.828 25.8959 184.234 25.0803C184.641 24.6725 184.844 23.8568 184.844 23.0412Z" fill="#3F434A"/>
<path d="M198.25 27.7313H196.219V22.4298C196.219 20.7985 195.609 19.9829 194.391 19.9829C193.781 19.9829 193.375 20.1868 192.969 20.5946C192.562 21.0024 192.359 21.6142 192.359 22.2259V27.7313H190.328V21.0024C190.328 20.1868 190.328 19.3712 190.328 18.3517H192.156V19.779C192.359 19.3712 192.766 18.9634 193.172 18.5556C193.781 18.1478 194.391 17.9438 195 17.9438C195.812 17.9438 196.625 18.1478 197.234 18.7595C198.047 19.3712 198.25 20.3907 198.25 21.8181V27.7313Z" fill="#3F434A"/>
<path d="M212.062 19.9826H209.828V24.4686C209.828 25.692 210.234 26.0998 211.047 26.0998C211.453 26.0998 211.656 26.0998 212.062 26.0998V27.7311C211.656 27.935 211.047 27.935 210.437 27.935C209.625 27.935 209.016 27.7311 208.609 27.1193C208.203 26.7115 208 25.692 208 24.6725V19.9826H206.578V18.3514H208V16.7201L210.031 16.1084V18.3514H212.266V19.9826H212.062Z" fill="#3F434A"/>
<path d="M223.031 27.731H221V22.4295C221 20.7982 220.39 19.9826 219.172 19.9826C218.156 19.9826 217.547 20.3904 217.14 21.41C217.14 21.6139 217.14 21.8178 217.14 22.2256V27.731H215.109V14.0693H217.14V19.7787C217.75 18.7592 218.765 18.1475 219.984 18.1475C220.796 18.1475 221.609 18.3514 222.015 18.9631C222.625 19.5748 223.031 20.7982 223.031 22.0217V27.731Z" fill="#3F434A"/>
<path d="M234.203 22.6336C234.203 23.0414 234.203 23.2453 234.203 23.6531H228.109C228.109 24.6727 228.515 25.2844 228.922 25.6922C229.531 26.1 230.14 26.3039 230.953 26.3039C231.969 26.3039 232.781 26.1 233.391 25.8961L233.797 27.3234C232.984 27.7313 231.969 27.9352 230.75 27.9352C229.328 27.9352 228.109 27.5273 227.297 26.7117C226.484 25.8961 226.078 24.6727 226.078 23.2453C226.078 21.818 226.484 20.5945 227.297 19.7789C228.109 18.7594 229.125 18.3516 230.547 18.3516C231.969 18.3516 232.984 18.7594 233.594 19.7789C234 20.3906 234.203 21.4102 234.203 22.6336ZM232.375 22.0219C232.375 21.4102 232.172 20.7984 231.969 20.3906C231.562 19.7789 231.156 19.575 230.344 19.575C229.734 19.575 229.125 19.7789 228.719 20.3906C228.312 20.7984 228.109 21.4102 228.109 22.0219H232.375Z" fill="#3F434A"/>
</svg>
