<svg width="80" height="80" viewBox="0 0 80 80" fill="none" xmlns="http://www.w3.org/2000/svg">
<circle cx="40" cy="40" r="39.5" fill="#F6F5FB" stroke="#512EA6" stroke-linecap="round" stroke-dasharray="5 5"/>
<path d="M28.9375 17.6125C27.525 17.5875 26.5125 18.5125 26.4125 19.925C26.375 20.4875 26.0625 20.8 25.575 20.775C25.0875 20.75 24.825 20.4125 24.825 19.85C24.825 18.25 25.9625 16.7375 27.55 16.2125C27.7 16.1625 27.9 16.175 28 16.0125C33.8125 16.0125 39.625 16.0125 45.425 16.0125C45.675 16.1 45.925 16.1625 46.1625 16.2625C47.775 16.875 48.7875 18.325 48.7875 20.1C48.8 23.6375 48.8 27.175 48.7875 30.7125C48.7875 31.0625 48.875 31.2625 49.2125 31.425C50.375 32 51.3625 32.8249 52.125 33.8624C53.775 36.0749 55.1375 38.4375 55.6875 41.2C56.075 43.1625 56.0375 45.1374 55.875 47.1124C55.6375 50.125 54.975 53.05 53.975 55.9C53.75 56.5625 53.7625 57.25 53.925 57.9249C54.15 58.875 54.4 59.825 54.625 60.775C55.05 62.525 53.9625 63.9 52.175 63.9C47.5 63.9 42.8375 63.9 38.1625 63.9C36.8375 63.9 36.025 63.325 35.6 62.075C34.8 59.7 34 57.325 33.225 54.9375C33.075 54.4874 32.9 54.3125 32.3875 54.325C31.0125 54.35 29.6375 54.4375 28.275 54.275C26.3875 54.05 24.975 52.5625 24.8125 50.6624C24.7875 50.3874 24.6875 50.3499 24.45 50.3125C23.175 50.1375 22.2375 49.4749 21.7875 48.2374C21.35 47.025 21.5875 45.9 22.475 44.95C22.65 44.7625 22.6125 44.6749 22.4625 44.5C21.275 43.1625 21.2875 41.525 22.4875 40.15C22.625 39.9874 22.6375 39.9124 22.5 39.7374C21.275 38.3249 21.275 36.775 22.5 35.3624C22.65 35.1875 22.6375 35.1125 22.4875 34.95C21.5875 33.975 21.35 32.85 21.8125 31.6125C22.2625 30.3875 23.2125 29.7375 24.5 29.575C24.7875 29.5375 24.8125 29.4125 24.8125 29.1875C24.8 28.3 24.8125 27.4125 24.8125 26.525C24.8125 25.9375 25.125 25.575 25.6 25.5625C26.075 25.5625 26.4 25.9375 26.4 26.5125C26.4 27.4 26.4125 28.2875 26.4 29.175C26.4 29.45 26.45 29.5625 26.75 29.575C27.1875 29.5875 27.5875 29.7875 28 29.95C29.625 31.15 29.975 32.4124 29.1875 34.2999C29.0625 34.6124 29.2875 34.6 29.425 34.6875C31.3625 35.7125 31.8 38.0124 30.3625 39.6749C30.175 39.8874 30.175 39.9875 30.3625 40.2C31.8 41.825 31.3625 44.1875 29.4125 45.1749C29.125 45.3249 29.1125 45.4125 29.25 45.6875C29.85 46.95 29.7 48.1375 28.8 49.2125C28.7375 49.2875 28.6 49.3249 28.6625 49.4749C28.7125 49.4874 28.75 49.5 28.8 49.5C33.325 49.5 37.8625 49.5 42.3875 49.5125C42.65 49.5125 42.7625 49.4375 42.8375 49.1624C43.2375 47.6374 43.9375 46.2625 44.9625 45.0375C45.3 44.625 45.575 44.1749 45.775 43.6749C46.4 42.1624 46.65 40.6125 46.0875 39.0375C45.775 38.1625 45.1375 37.625 44.1625 37.575C41.6125 37.4375 39.2125 36.8125 36.9625 35.6124C35.4375 34.7999 34.8 33.025 35.4875 31.4625C36.1625 29.925 37.8875 29.2 39.5125 29.7625C39.9375 29.9125 40.375 30.0375 40.8125 30.125C42.4125 30.45 44.0125 30.3 45.625 30.3C46.0375 30.375 46.4625 30.4125 46.8625 30.525C47.15 30.6 47.2125 30.525 47.2125 30.25C47.2125 26.8125 47.225 23.375 47.2 19.9375C47.1875 18.5625 46.0125 17.5375 44.6875 17.6125C44.45 17.6 44.225 17.5875 43.9875 17.5875C43.2125 17.5875 43.2125 17.5875 43.2 18.375C43.175 19.75 42.175 20.775 40.8125 20.775C38.15 20.7875 35.4875 20.7875 32.8125 20.775C31.525 20.775 30.5625 19.875 30.4375 18.6125C30.4125 18.3625 30.4 18.1125 30.4 17.8625C30.4 17.6625 30.325 17.5875 30.125 17.5875C29.7125 17.6125 29.325 17.6125 28.9375 17.6125ZM25.375 34.3375C25.5625 34.3375 25.75 34.3375 25.9375 34.325C26.1125 34.3375 26.275 34.35 26.45 34.35C27.625 34.325 28.375 33.0875 27.825 32.0499C27.4 31.2499 26.675 31.0875 25.8375 31.1875C25.6625 31.1875 25.4875 31.1875 25.3125 31.1875C25.05 31.2 24.7875 31.175 24.525 31.2125C23.8 31.325 23.25 31.925 23.2125 32.6375C23.175 33.425 23.625 34.0875 24.35 34.2999C24.7 34.3874 25.0375 34.3624 25.375 34.3375ZM25.85 48.7249C26.05 48.7374 26.25 48.75 26.45 48.7374C27.525 48.6749 28.2375 47.6749 27.9375 46.6875C27.7375 46.0375 27.15 45.4 25.95 45.575C25.7625 45.575 25.575 45.575 25.3875 45.5625C25.175 45.5625 24.95 45.5374 24.7375 45.5499C23.9625 45.5749 23.325 46.1625 23.2375 46.9C23.1375 47.6999 23.575 48.4 24.325 48.65C24.65 48.75 24.9625 48.75 25.3 48.7249C25.475 48.7249 25.6625 48.7249 25.85 48.7249ZM25.2875 39.125C26.0375 39.125 26.7875 39.1124 27.5375 39.1124C27.7375 39.1124 27.9375 39.1375 28.1375 39.125C28.7875 39.1 29.225 38.75 29.4625 38.1875C29.7125 37.625 29.6375 37.0625 29.2375 36.575C28.7625 36 28.125 35.8874 27.425 35.9874C26.7125 35.9375 25.9875 35.9499 25.275 35.9874C25.0125 35.9375 24.75 35.975 24.4875 36.025C23.7875 36.1625 23.2625 36.75 23.2125 37.4375C23.1625 38.1875 23.575 38.8375 24.2625 39.075C24.6 39.175 24.95 39.15 25.2875 39.125ZM27.5375 40.7999C26.7875 40.7999 26.0375 40.7875 25.2875 40.7875C25.0875 40.7875 24.8875 40.775 24.675 40.7875C23.675 40.85 22.9875 41.8125 23.25 42.775C23.475 43.6124 24.1875 44.025 25.275 43.95C25.9875 43.9875 26.7125 43.9875 27.425 43.95C27.6125 43.9625 27.8 43.9875 27.9875 43.975C28.75 43.925 29.3125 43.5 29.525 42.825C29.725 42.2 29.5125 41.5374 29 41.1124C28.5625 40.7374 28.05 40.75 27.5375 40.7999ZM40 17.6125C37.5875 17.6125 35.1625 17.6 32.75 17.6C31.975 17.6 32.025 17.4125 32.0375 18.3625C32.0375 18.875 32.3125 19.175 32.8 19.175C35.175 19.175 37.5375 19.1625 39.9125 19.1625C40.225 19.1625 40.5375 19.2 40.8375 19.175C41.425 19.125 41.6375 18.75 41.6125 17.925C41.5875 17.325 41.15 17.6375 40.8875 17.6C40.5875 17.5625 40.2875 17.6125 40 17.6125ZM28.1875 51.1124C27.575 50.9375 26.9875 50.7375 26.4375 50.3375C26.4125 51.7125 27.4375 52.6624 28.9375 52.7249C29.0625 52.7374 29.1875 52.7625 29.3 52.7625C31.8875 52.7625 34.4875 52.7625 37.075 52.7625C38.35 52.7625 39.6375 52.75 40.9125 52.7374C42.5 52.9249 42.5875 52.85 42.525 51.45C42.525 51.4375 42.525 51.425 42.525 51.4C42.55 51.175 42.4375 51.0874 42.225 51.0999C41.7875 51.1124 41.35 51.125 40.925 51.1375C36.675 51.125 32.425 51.1124 28.1875 51.1124ZM38.875 62.2874C42.425 62.2874 45.9625 62.2999 49.5125 62.2999C50.15 62.2999 50.7875 62.2875 51.4375 62.275C51.675 62.2875 51.9 62.2999 52.1375 62.2999C52.95 62.2999 53.2625 61.8874 53.0625 61.0999C52.85 60.2374 52.6375 59.375 52.425 58.525C52.1375 57.425 52.125 56.3375 52.5 55.2625C53.65 51.9625 54.2875 48.5874 54.3875 45.0875C54.4375 43.1124 54.1875 41.225 53.5125 39.375C52.8625 37.5875 51.8 36.025 50.625 34.5499C49.6625 33.3375 48.3625 32.5625 46.8375 32.2125C46.05 31.9874 45.2625 31.9125 44.4375 31.9625C42.6 32.0625 40.7875 31.9375 39.0375 31.3125C38.15 31 37.3 31.3249 36.95 32.1124C36.6 32.8874 36.925 33.775 37.7375 34.2125C39.6625 35.25 41.7125 35.8375 43.9 35.9375C45.9 36.025 47.325 37.1124 47.775 39.0499C48.35 41.5749 47.825 43.9 46.275 45.975C45.85 46.5375 45.425 47.0875 45.1 47.725C43.8375 50.2374 43.8125 52.8125 44.675 55.4375C44.875 56.0374 44.7375 56.4874 44.2875 56.6624C43.8 56.8499 43.4 56.6124 43.175 55.9749C43.025 55.5499 42.9125 55.1124 42.8 54.6749C42.75 54.4874 42.7125 54.3375 42.45 54.3375C40.425 54.35 38.3875 54.3499 36.3625 54.3624C35.9875 54.3499 35.6125 54.375 35.2375 54.3375C34.8125 54.3 34.7375 54.4124 34.875 54.8125C35.575 56.875 36.2625 58.9375 36.95 61C37.3875 62.3499 37.4125 62.3624 38.875 62.2874Z" fill="#512EA6"/>
<path d="M28.9375 17.6124C29.325 17.6124 29.7125 17.6124 30.1 17.5999C30.3 17.5999 30.375 17.6749 30.375 17.8749C30.375 18.1249 30.3875 18.3749 30.4125 18.6249C30.5375 19.8874 31.5 20.7874 32.7875 20.7874C35.45 20.7999 38.1125 20.7999 40.7875 20.7874C42.1625 20.7874 43.1625 19.7624 43.175 18.3874C43.1875 17.5999 43.1875 17.5999 43.9625 17.5999C44.2 17.5999 44.425 17.6124 44.6625 17.6249C45.625 18.7874 45.625 20.1749 45.6125 21.5874C45.5875 24.4999 45.6 27.3999 45.6 30.3124C44 30.3124 42.3875 30.4624 40.7875 30.1374C40.3375 30.0499 39.9125 29.9249 39.4875 29.7749C37.8625 29.1999 36.125 29.9374 35.4625 31.4749C34.775 33.0374 35.4125 34.8124 36.9375 35.6249C39.1875 36.8249 41.6 37.4499 44.1375 37.5874C45.1 37.6374 45.7375 38.1749 46.0625 39.0499C46.6375 40.6374 46.375 42.1749 45.75 43.6874C45.55 44.1749 45.275 44.6374 44.9375 45.0499C43.925 46.2624 43.2125 47.6374 42.8125 49.1749C42.7375 49.4499 42.625 49.5249 42.3625 49.5249C37.8375 49.5124 33.3 49.5249 28.775 49.5124C28.725 49.5124 28.6875 49.4999 28.6375 49.4874C28.575 49.3374 28.7125 49.2999 28.775 49.2249C29.675 48.1374 29.825 46.9624 29.225 45.6999C29.0875 45.4249 29.1 45.3249 29.3875 45.1874C31.325 44.1999 31.775 41.8374 30.3375 40.2124C30.15 39.9999 30.15 39.8999 30.3375 39.6874C31.775 38.0374 31.3375 35.7374 29.4 34.6999C29.2625 34.6249 29.0375 34.6249 29.1625 34.3124C29.9625 32.4249 29.6 31.1499 27.975 29.9624C27.975 26.7124 27.9875 23.4624 27.975 20.2124C27.975 19.3124 28.2375 18.5374 28.8 17.8499C28.8875 17.7874 28.9375 17.7124 28.9375 17.6124Z" fill="#F6F5FB"/>
<path d="M25.6 23.975C25.1375 23.975 24.8 23.6375 24.8125 23.175C24.8125 22.75 25.1625 22.4 25.5875 22.3875C26.0125 22.375 26.4 22.75 26.4125 23.175C26.4125 23.625 26.0625 23.975 25.6 23.975Z" fill="#512EA6"/>
<path d="M51.425 62.2874C50.7875 62.2999 50.15 62.3124 49.5 62.3124C45.95 62.3124 42.4125 62.2999 38.8625 62.2999C38.8375 62.1999 38.825 62.0874 38.8 61.9874C38.375 60.6624 37.925 59.3374 37.5 57.9999C37.1125 56.7874 36.6375 55.5999 36.3375 54.3624C38.3625 54.3499 40.4 54.3499 42.425 54.3374C42.6875 54.3374 42.725 54.4874 42.775 54.6749C42.9 55.1124 43 55.5499 43.15 55.9749C43.375 56.6124 43.7875 56.8499 44.2625 56.6624C44.725 56.4874 44.85 56.0499 44.65 55.4374C43.775 52.8124 43.8125 50.2374 45.075 47.7249C45.3875 47.0999 45.825 46.5499 46.25 45.9749C47.8 43.8999 48.325 41.5749 47.75 39.0499C47.3 37.1124 45.8875 36.0249 43.875 35.9374C41.6875 35.8374 39.6375 35.2374 37.7125 34.2124C36.9 33.7749 36.575 32.8874 36.925 32.1124C37.275 31.3249 38.125 30.9999 39.0125 31.3124C40.7625 31.9249 42.575 32.0624 44.4125 31.9624C45.2375 31.9124 46.025 31.9874 46.8125 32.2124C46.825 32.3499 46.925 32.4249 47.0375 32.4874C47.975 33.0874 48.775 33.8499 49.375 34.7749C49.8875 35.5624 50.45 36.3249 50.925 37.1624C51.9375 38.9499 52.5625 40.8624 52.7 42.8999C52.825 44.7499 52.8 46.6249 52.5375 48.4874C52.225 50.6249 51.8375 52.7374 51.075 54.7624C50.55 56.1624 50.5125 57.4999 50.9125 58.9499C51.2125 60.0124 51.75 61.0999 51.425 62.2874Z" fill="#F6F5FB"/>
<path d="M51.425 62.2874C51.7375 61.0999 51.2125 60.0125 50.9125 58.9375C50.525 57.5 50.55 56.15 51.075 54.75C51.8375 52.725 52.225 50.6124 52.5375 48.4749C52.8 46.6249 52.825 44.75 52.7 42.8875C52.5625 40.8625 51.9375 38.9374 50.925 37.15C50.4625 36.325 49.9 35.5625 49.375 34.7625C48.7625 33.825 47.975 33.075 47.0375 32.475C46.925 32.4 46.825 32.3375 46.8125 32.2C48.3375 32.55 49.6375 33.325 50.6 34.5375C51.775 36.0125 52.825 37.5749 53.4875 39.3624C54.1625 41.2125 54.4125 43.1 54.3625 45.075C54.2625 48.575 53.625 51.95 52.475 55.25C52.1 56.325 52.1125 57.4125 52.4 58.5125C52.625 59.375 52.8375 60.225 53.0375 61.0875C53.2375 61.875 52.925 62.2874 52.1125 62.2874C51.8875 62.2999 51.6625 62.2874 51.425 62.2874Z" fill="#DCD7E9"/>
<path d="M40.9125 52.7249C39.6375 52.7374 38.35 52.7499 37.075 52.7499C34.4875 52.7499 31.8875 52.7499 29.3 52.7499C29.175 52.7499 29.05 52.7249 28.9375 52.7124C28.9625 52.5249 28.8125 52.4374 28.725 52.3124C28.4625 51.9499 28.2125 51.5749 28.175 51.0999C32.425 51.0999 36.6625 51.1124 40.9125 51.1124C40.875 51.6624 40.8125 52.1874 40.9125 52.7249Z" fill="#DCD7E9"/>
<path d="M45.625 30.3249C45.625 27.4124 45.6 24.5124 45.6375 21.5999C45.65 20.1874 45.65 18.7999 44.6875 17.6374C46.025 17.5624 47.2 18.5874 47.2 19.9624C47.225 23.3999 47.2125 26.8374 47.2125 30.2749C47.2125 30.5499 47.15 30.6249 46.8625 30.5499C46.4625 30.4374 46.0375 30.3874 45.625 30.3249Z" fill="#DCD7E9"/>
<path d="M39.9 19.1749C37.525 19.1874 35.1625 19.1999 32.7875 19.1874C32.3 19.1874 32.025 18.8749 32.025 18.3749C32.0125 17.4249 31.9625 17.6124 32.7375 17.6124C35.15 17.6124 37.575 17.6124 39.9875 17.6249C40.0125 18.1374 40.0125 18.6624 39.9 19.1749Z" fill="#DCD7E9"/>
<path d="M36.35 54.3625C36.65 55.6 37.1375 56.7875 37.5125 58C37.9375 59.3375 38.375 60.6625 38.8125 61.9875C38.85 62.0875 38.8625 62.2 38.875 62.3C37.4125 62.3625 37.3875 62.35 36.9375 61.0125C36.25 58.95 35.5625 56.875 34.8625 54.825C34.725 54.425 34.8 54.3 35.225 54.35C35.6 54.3625 35.975 54.35 36.35 54.3625Z" fill="#FDFDFE"/>
<path d="M25.2875 40.7749C26.0375 40.7749 26.7875 40.7874 27.5375 40.7874C28.1125 41.8499 28.2 42.8999 27.4375 43.9249C26.725 43.9749 26 43.9624 25.2875 43.9249C25.2625 43.8374 25.2625 43.7374 25.2125 43.6624C24.9375 43.2124 24.8125 42.7374 24.8125 42.1999C24.8125 41.6749 25.15 41.2624 25.2875 40.7749Z" fill="#F6F5FB"/>
<path d="M25.2875 35.9749C26 35.9374 26.725 35.9374 27.4375 35.9749C28.1 36.9249 28.225 37.9124 27.5875 38.9374C27.5625 38.9874 27.55 39.0499 27.5375 39.1124C26.7875 39.1124 26.0375 39.1249 25.2875 39.1249C25.2375 38.9874 25.2 38.8249 25.1125 38.6999C24.7 37.9999 24.725 37.2874 25.0125 36.5499C25.1 36.3499 25.3125 36.2124 25.2875 35.9749Z" fill="#F6F5FB"/>
<path d="M27.5375 39.1125C27.55 39.05 27.55 38.9875 27.5875 38.9375C28.225 37.9125 28.1 36.9375 27.4375 35.975C28.1375 35.875 28.775 35.9875 29.25 36.5625C29.65 37.05 29.725 37.6125 29.475 38.175C29.225 38.7375 28.8 39.1 28.15 39.1125C27.9375 39.1375 27.7375 39.1125 27.5375 39.1125Z" fill="#DCD7E9"/>
<path d="M27.4375 43.925C28.2 42.9 28.1125 41.85 27.5375 40.7875C28.05 40.7375 28.5625 40.725 29 41.0875C29.5125 41.5125 29.725 42.175 29.525 42.8C29.3125 43.475 28.75 43.9 27.9875 43.95C27.8125 43.975 27.625 43.9375 27.4375 43.925Z" fill="#DCD7E9"/>
<path d="M25.2875 48.7249C24.9625 48.7499 24.6375 48.7624 24.3125 48.6499C23.575 48.3999 23.125 47.6999 23.225 46.8999C23.3125 46.1624 23.95 45.5874 24.725 45.5499C24.9375 45.5374 25.1625 45.5624 25.375 45.5624C24.8625 46.2624 24.675 47.0249 24.9125 47.8874C25 48.1874 25.2875 48.3999 25.2875 48.7249Z" fill="#FCFDFE"/>
<path d="M25.9375 45.575C27.1375 45.4 27.725 46.0375 27.925 46.6875C28.225 47.6875 27.525 48.675 26.4375 48.7375C26.2375 48.75 26.0375 48.725 25.8375 48.725C26.525 47.7375 26.575 46.7125 25.95 45.675C25.9375 45.65 25.95 45.6125 25.9375 45.575Z" fill="#DCD7E9"/>
<path d="M25.85 31.1875C26.6875 31.0875 27.4125 31.25 27.8375 32.05C28.3875 33.075 27.6375 34.3125 26.4625 34.35C26.2875 34.35 26.125 34.3375 25.95 34.325C26.0125 33.9875 26.25 33.725 26.3375 33.3875C26.55 32.5625 26.3125 31.8625 25.85 31.1875Z" fill="#DCD7E9"/>
<path d="M25.2875 35.975C25.325 36.225 25.1 36.3625 25.025 36.5625C24.7375 37.3 24.7125 38.0125 25.125 38.7125C25.2 38.8375 25.2375 39 25.3 39.1375C24.9625 39.1625 24.6125 39.1875 24.2875 39.075C23.6 38.8375 23.1875 38.1875 23.2375 37.4375C23.2875 36.7375 23.8 36.1625 24.5125 36.025C24.7625 35.95 25.0125 35.925 25.2875 35.975Z" fill="#FCFDFE"/>
<path d="M25.2875 40.7748C25.15 41.2623 24.8 41.6623 24.8125 42.2123C24.8125 42.7373 24.9375 43.2248 25.2125 43.6748C25.2625 43.7498 25.2625 43.8498 25.2875 43.9373C24.2 44.0123 23.5 43.5998 23.2625 42.7623C23 41.7998 23.6875 40.8373 24.6875 40.7748C24.8875 40.7623 25.0875 40.7748 25.2875 40.7748Z" fill="#FCFDFE"/>
<path d="M25.375 34.3375C25.0375 34.3625 24.6875 34.3875 24.3625 34.3C23.625 34.1 23.175 33.425 23.225 32.6375C23.2625 31.925 23.8 31.325 24.5375 31.2125C24.8 31.175 25.0625 31.1875 25.325 31.1875C25.3 31.2625 25.2875 31.35 25.25 31.4125C24.575 32.4125 24.725 33.3875 25.375 34.3375Z" fill="#FCFDFE"/>
<path d="M25.375 34.3375C24.7125 33.3875 24.5625 32.4125 25.2375 31.4125C25.275 31.35 25.2875 31.2625 25.3125 31.1875C25.4875 31.1875 25.6625 31.1875 25.8375 31.1875C26.3 31.8625 26.5375 32.5625 26.3125 33.4C26.225 33.7375 25.9875 34 25.925 34.3375C25.75 34.3375 25.5625 34.3375 25.375 34.3375Z" fill="#F6F5FB"/>
<path d="M25.9375 45.5751C25.9375 45.6001 25.9375 45.6375 25.95 45.6625C26.575 46.7 26.525 47.7251 25.8375 48.7126C25.65 48.7126 25.4625 48.7126 25.275 48.7126C25.275 48.3751 24.9875 48.175 24.9125 47.875C24.675 47.025 24.8625 46.2625 25.375 45.55C25.5625 45.575 25.75 45.5751 25.9375 45.5751Z" fill="#F6F5FB"/>
<path d="M28.1875 51.1124C28.2125 51.5874 28.4625 51.9624 28.7375 52.3249C28.825 52.4499 28.975 52.5374 28.95 52.7249C27.45 52.6749 26.425 51.7124 26.45 50.3374C26.975 50.7374 27.575 50.9374 28.1875 51.1124Z" fill="#F9FBFE"/>
<path d="M40.9125 52.7248C40.8125 52.1873 40.875 51.6623 40.9125 51.1248C41.35 51.1123 41.7875 51.1123 42.2125 51.0873C42.425 51.0748 42.5375 51.1623 42.5125 51.3873C42.5125 51.3998 42.5125 51.4123 42.5125 51.4373C42.5875 52.8373 42.5 52.9123 40.9125 52.7248Z" fill="#DCD7E9"/>
<path d="M39.9 19.1749C40.0125 18.6624 40.0125 18.1374 40 17.6249C40.2875 17.6249 40.6 17.5749 40.875 17.6249C41.125 17.6624 41.575 17.3499 41.6 17.9499C41.6375 18.7624 41.4125 19.1499 40.825 19.1999C40.525 19.2124 40.2125 19.1749 39.9 19.1749Z" fill="#E2D9F8"/>
</svg>
