<svg width="260" height="82" viewBox="0 0 260 82" fill="none" xmlns="http://www.w3.org/2000/svg">
<path d="M251.875 81.5625H8.125C3.65625 81.5625 0 77.8922 0 73.4062V8.15625C0 3.67031 3.65625 0 8.125 0H251.875C256.344 0 260 3.67031 260 8.15625V73.4062C260 77.8922 256.344 81.5625 251.875 81.5625Z" fill="#FEB200"/>
<path d="M63.4238 41.4779C63.4238 36.199 67.8343 33.6447 68.004 33.4744C65.4594 29.8983 61.7275 29.3875 60.3704 29.2172C57.1473 28.8766 53.9243 31.0904 52.3975 31.0904C50.7012 31.0904 48.1567 29.2172 45.4425 29.2172C41.8802 29.2172 38.6571 31.2607 36.7911 34.4961C33.0591 40.967 35.7733 50.5031 39.3356 55.782C41.2016 58.3364 43.2373 61.2312 45.9514 61.061C48.6656 60.8907 49.6834 59.3581 52.9064 59.3581C56.1295 59.3581 56.9777 61.061 59.8615 61.061C62.7453 61.061 64.6113 58.5066 66.3076 55.9523C68.3432 53.0574 69.1914 50.1626 69.1914 49.9923C69.0218 49.822 63.4238 47.7785 63.4238 41.4779Z" fill="white"/>
<path d="M58.1648 25.8115C59.5219 23.9383 60.5397 21.5543 60.3701 19C58.3344 19.1703 55.6203 20.3623 54.2632 22.2355C52.9061 23.7681 51.7187 26.3224 52.0579 28.7064C54.2632 28.8767 56.6381 27.5144 58.1648 25.8115Z" fill="white"/>
<path d="M107.995 59.9524H104.126L102.015 53.2432H94.6282L92.6935 59.9524H89L96.3871 37.1763H100.96L107.995 59.9524ZM101.312 50.4183L99.3771 44.4152C99.2012 43.8856 98.8494 42.2965 98.1459 40.1778C97.97 41.0606 97.6183 42.6497 97.0906 44.4152L95.1559 50.4183H101.312Z" fill="white"/>
<path d="M126.815 51.6542C126.815 54.4791 126.111 56.5978 124.528 58.3634C123.121 59.7759 121.538 60.4821 119.428 60.4821C117.317 60.4821 115.734 59.7759 114.855 58.1868V66.8382H111.161V49.1823C111.161 47.4168 111.161 45.6512 110.985 43.709H114.151L114.327 46.3574C115.558 44.4153 117.317 43.3559 119.779 43.3559C121.714 43.3559 123.297 44.0621 124.528 45.6512C126.111 47.0636 126.815 49.0058 126.815 51.6542ZM123.121 51.6542C123.121 50.0651 122.769 48.6527 122.066 47.7699C121.362 46.7105 120.307 46.1808 118.9 46.1808C118.021 46.1808 117.141 46.534 116.438 47.0636C115.734 47.5933 115.207 48.4761 115.031 49.3589C114.855 49.8886 114.855 50.2417 114.855 50.4183V53.2432C114.855 54.4791 115.207 55.3619 115.91 56.2447C116.614 57.1275 117.669 57.4806 118.724 57.4806C120.131 57.4806 121.187 56.9509 121.89 55.8916C122.769 54.8322 123.121 53.4198 123.121 51.6542Z" fill="white"/>
<path d="M145.634 51.6542C145.634 54.4791 144.931 56.5978 143.348 58.3634C141.941 59.7759 140.358 60.4821 138.247 60.4821C136.136 60.4821 134.554 59.7759 133.674 58.1868V66.8382H129.981V49.1823C129.981 47.4168 129.981 45.6512 129.805 43.709H132.971L133.146 46.3574C134.378 44.4153 136.136 43.3559 138.599 43.3559C140.534 43.3559 142.116 44.0621 143.348 45.6512C144.931 47.0636 145.634 49.0058 145.634 51.6542ZM141.941 51.6542C141.941 50.0651 141.589 48.6527 140.885 47.7699C140.182 46.7105 139.126 46.1808 137.719 46.1808C136.84 46.1808 135.961 46.534 135.257 47.0636C134.554 47.5933 134.026 48.4761 133.85 49.3589C133.674 49.8886 133.674 50.2417 133.674 50.4183V53.2432C133.674 54.4791 134.026 55.3619 134.729 56.2447C135.433 57.1275 136.488 57.4806 137.544 57.4806C138.951 57.4806 140.006 56.9509 140.709 55.8916C141.589 54.8322 141.941 53.4198 141.941 51.6542Z" fill="white"/>
<path d="M166.74 53.5965C166.74 55.5387 166.037 57.1277 164.805 58.3636C163.398 59.7761 161.288 60.3058 158.649 60.3058C156.187 60.3058 154.252 59.7761 152.845 58.8933L153.725 55.8918C155.308 56.7746 157.067 57.3043 159.001 57.3043C160.408 57.3043 161.464 56.9512 162.167 56.4215C162.871 55.7152 163.222 55.009 163.222 53.9497C163.222 53.0669 162.871 52.1841 162.343 51.6544C161.639 50.9482 160.584 50.4185 159.177 49.8888C155.132 48.4763 153.197 46.1811 153.197 43.3561C153.197 41.414 153.901 40.0015 155.308 38.7656C156.715 37.5297 158.474 37 160.936 37C163.047 37 164.629 37.3531 166.037 38.0594L165.157 41.0609C163.926 40.3546 162.519 40.0015 160.76 40.0015C159.529 40.0015 158.474 40.3546 157.77 40.8843C157.242 41.414 156.891 42.1202 156.891 43.003C156.891 43.8858 157.242 44.592 157.946 45.2983C158.474 45.8279 159.705 46.3576 161.288 47.0639C163.222 47.7701 164.629 48.8295 165.685 49.8888C166.212 50.7716 166.74 52.0075 166.74 53.5965Z" fill="white"/>
<path d="M178.7 46.3575H174.655V54.3026C174.655 56.2448 175.358 57.3041 176.765 57.3041C177.469 57.3041 177.997 57.3041 178.348 57.1276L178.524 59.9525C177.821 60.3056 176.941 60.3056 175.71 60.3056C174.303 60.3056 173.072 59.9525 172.368 59.0697C171.489 58.1869 171.137 56.7745 171.137 54.6558V46.3575H168.675V43.5325H171.137V40.531L174.655 39.4717V43.5325H178.7V46.3575Z" fill="white"/>
<path d="M196.816 51.6544C196.816 54.1262 196.112 56.2449 194.705 57.834C193.122 59.423 191.188 60.3058 188.725 60.3058C186.263 60.3058 184.328 59.423 182.921 57.834C181.514 56.2449 180.811 54.3028 180.811 51.831C180.811 49.3591 181.514 47.2404 183.097 45.6514C184.504 44.0624 186.615 43.1796 189.077 43.1796C191.54 43.1796 193.474 44.0624 194.881 45.6514C196.112 47.2404 196.816 49.1826 196.816 51.6544ZM192.947 51.831C192.947 50.2419 192.595 49.006 191.891 47.9467C191.188 46.7107 189.957 46.0045 188.55 46.0045C187.142 46.0045 185.911 46.7107 185.208 47.9467C184.504 49.006 184.152 50.4185 184.152 51.831C184.152 53.42 184.504 54.6559 185.208 55.7152C185.911 56.9512 187.142 57.6574 188.55 57.6574C189.957 57.6574 191.012 56.9512 191.891 55.7152C192.595 54.6559 192.947 53.2434 192.947 51.831Z" fill="white"/>
<path d="M208.6 46.7105C208.248 46.7105 207.897 46.534 207.369 46.534C206.138 46.534 205.082 47.0637 204.379 47.9465C203.851 48.8293 203.5 49.8886 203.5 51.1245V59.7759H199.806V48.4761C199.806 46.534 199.806 44.945 199.63 43.3559H202.796L202.972 46.534H203.148C203.5 45.4746 204.203 44.5918 204.907 43.8856C205.786 43.3559 206.665 43.0028 207.545 43.0028C207.897 43.0028 208.248 43.0028 208.424 43.0028V46.7105H208.6Z" fill="white"/>
<path d="M224.781 50.9482C224.781 51.6544 224.781 52.1841 224.605 52.5372H213.701C213.701 54.1262 214.228 55.3621 215.284 56.2449C216.163 56.9512 217.394 57.4808 218.801 57.4808C220.384 57.4808 221.967 57.3043 223.198 56.7746L223.726 59.2464C222.143 59.9527 220.384 60.3058 218.274 60.3058C215.811 60.3058 213.701 59.5995 212.294 58.0105C210.887 56.598 210.183 54.4793 210.183 52.0075C210.183 49.5357 210.886 47.417 212.118 45.8279C213.525 44.0624 215.459 43.1796 217.922 43.1796C220.208 43.1796 222.143 44.0624 223.198 45.8279C224.429 47.2404 224.781 49.006 224.781 50.9482ZM221.439 50.0654C221.439 49.006 221.264 48.1232 220.736 47.2404C220.032 46.1811 219.153 45.6514 217.922 45.6514C216.691 45.6514 215.811 46.1811 215.108 47.0639C214.58 47.7701 214.228 48.8295 214.052 49.8888H221.439V50.0654Z" fill="white"/>
<path d="M97.5098 20.2422C97.5098 22.2616 96.9612 23.9138 95.681 25.0154C94.5837 25.9333 92.9378 26.484 90.7432 26.484C89.6459 26.484 88.7315 26.484 88 26.3004V14.9182C88.9144 14.7346 90.0117 14.7346 91.2919 14.7346C93.3035 14.7346 94.7666 15.1018 95.8639 16.0197C96.7783 16.9376 97.5098 18.4063 97.5098 20.2422ZM95.4981 20.2422C95.4981 18.9571 95.1324 17.8556 94.4008 17.1212C93.6693 16.3869 92.572 16.0197 91.2919 16.0197C90.7432 16.0197 90.1946 16.0197 89.8288 16.2033V24.8318C90.0117 24.8318 90.5603 24.8318 91.109 24.8318C92.572 24.8318 93.6693 24.4646 94.4008 23.7303C95.1324 22.9959 95.4981 21.7108 95.4981 20.2422Z" fill="white"/>
<path d="M107.751 22.0777C107.751 23.3628 107.385 24.4643 106.654 25.1987C105.922 26.1166 104.825 26.4838 103.545 26.4838C102.265 26.4838 101.35 26.1166 100.619 25.1987C99.8873 24.4643 99.5215 23.3628 99.5215 22.0777C99.5215 20.7926 99.8873 19.6911 100.619 18.9568C101.35 18.0389 102.448 17.6717 103.728 17.6717C105.008 17.6717 105.922 18.0389 106.654 18.9568C107.385 19.6911 107.751 20.7926 107.751 22.0777ZM105.922 22.0777C105.922 21.3434 105.739 20.609 105.374 20.0583C105.008 19.324 104.459 19.1404 103.728 19.1404C102.996 19.1404 102.448 19.5075 102.082 20.0583C101.716 20.609 101.533 21.3434 101.533 22.0777C101.533 22.8121 101.716 23.5464 102.082 24.0972C102.448 24.8315 102.996 25.0151 103.728 25.0151C104.459 25.0151 105.008 24.6479 105.374 23.9136C105.739 23.5464 105.922 22.8121 105.922 22.0777Z" fill="white"/>
<path d="M121.833 17.8555L119.273 26.3004H117.627L116.529 22.6287C116.164 21.7107 115.981 20.7928 115.798 19.8749C115.615 20.7928 115.432 21.7107 115.066 22.6287L113.969 26.3004H112.323L109.58 17.8555H111.409L112.323 21.8943C112.506 22.8123 112.689 23.7302 112.872 24.6481C113.055 23.9138 113.238 22.9958 113.603 21.8943L114.701 17.8555H116.164L117.261 21.7107C117.627 22.6287 117.81 23.5466 117.992 24.4645C118.175 23.5466 118.358 22.6287 118.541 21.7107L119.638 17.8555H121.833Z" fill="white"/>
<path d="M131.343 26.3004H129.514V21.5272C129.514 20.0585 128.965 19.3242 127.868 19.3242C127.319 19.3242 126.954 19.5078 126.588 19.8749C126.222 20.2421 126.039 20.7929 126.039 21.3436V26.3004H124.21V20.2421C124.21 19.5078 124.21 18.7734 124.21 17.8555H125.856V19.1406C126.039 18.7734 126.405 18.4063 126.771 18.0391C127.319 17.6719 127.868 17.4883 128.417 17.4883C129.148 17.4883 129.88 17.6719 130.428 18.2227C131.16 18.7734 131.343 19.6914 131.343 20.9764V26.3004Z" fill="white"/>
<path d="M136.463 26.3002H134.635V14H136.463V26.3002Z" fill="white"/>
<path d="M147.436 22.0777C147.436 23.3628 147.071 24.4643 146.339 25.1987C145.608 26.1166 144.51 26.4838 143.23 26.4838C141.95 26.4838 141.036 26.1166 140.304 25.1987C139.573 24.4643 139.207 23.3628 139.207 22.0777C139.207 20.7926 139.573 19.6911 140.304 18.9568C141.036 18.2224 142.133 17.6717 143.413 17.6717C144.693 17.6717 145.608 18.0389 146.339 18.9568C147.071 19.6911 147.436 20.7926 147.436 22.0777ZM145.608 22.0777C145.608 21.3434 145.425 20.609 145.059 20.0583C144.693 19.324 144.145 19.1404 143.413 19.1404C142.682 19.1404 142.133 19.5075 141.767 20.0583C141.401 20.609 141.218 21.3434 141.218 22.0777C141.218 22.8121 141.401 23.5464 141.767 24.0972C142.133 24.8315 142.682 25.0151 143.413 25.0151C144.145 25.0151 144.693 24.6479 145.059 23.9136C145.425 23.5464 145.608 22.8121 145.608 22.0777Z" fill="white"/>
<path d="M156.398 26.3002H154.752L154.569 25.3822C154.02 26.1166 153.106 26.4838 152.191 26.4838C151.46 26.4838 150.728 26.3002 150.363 25.7494C149.997 25.1987 149.631 24.6479 149.631 24.0972C149.631 22.9956 149.997 22.2613 150.911 21.7106C151.826 21.1598 152.923 20.9762 154.569 20.9762V20.7926C154.569 19.6911 154.02 19.1404 152.923 19.1404C152.008 19.1404 151.46 19.324 150.728 19.6911L150.363 18.406C151.094 17.8553 152.008 17.6717 153.289 17.6717C155.483 17.6717 156.58 18.7732 156.58 21.1598V24.2807C156.398 25.1987 156.398 25.7494 156.398 26.3002ZM154.569 23.3628V22.0777C152.557 22.0777 151.46 22.6285 151.46 23.73C151.46 24.0972 151.643 24.4643 151.826 24.6479C152.008 24.8315 152.374 25.0151 152.74 25.0151C153.106 25.0151 153.471 24.8315 153.837 24.6479C154.203 24.4643 154.386 24.0972 154.569 23.73C154.569 23.73 154.569 23.5464 154.569 23.3628Z" fill="white"/>
<path d="M167.005 26.3004H165.359V25.0153C164.81 26.1168 163.896 26.4839 162.615 26.4839C161.518 26.4839 160.787 26.1168 160.055 25.3824C159.324 24.6481 159.141 23.5466 159.141 22.2615C159.141 20.9764 159.507 19.8749 160.238 18.957C160.97 18.2226 161.884 17.8555 162.798 17.8555C163.896 17.8555 164.627 18.2226 165.176 18.957V14.1838H167.005V24.0973C167.005 24.8317 167.005 25.566 167.005 26.3004ZM165.176 22.8123V21.3436C165.176 21.16 165.176 20.9764 165.176 20.7928C164.993 20.4257 164.81 20.0585 164.444 19.6913C164.079 19.3241 163.713 19.3241 163.164 19.3241C162.433 19.3241 161.884 19.6913 161.518 20.2421C161.152 20.7928 160.97 21.5272 160.97 22.4451C160.97 23.363 161.152 23.9138 161.518 24.4645C161.884 25.0153 162.433 25.3824 163.164 25.3824C163.713 25.3824 164.261 25.1989 164.627 24.6481C164.993 23.9138 165.176 23.363 165.176 22.8123Z" fill="white"/>
<path d="M182.915 22.0777C182.915 23.3628 182.55 24.4643 181.818 25.1987C181.086 26.1166 179.989 26.4838 178.709 26.4838C177.429 26.4838 176.514 26.1166 175.783 25.1987C175.051 24.4643 174.686 23.3628 174.686 22.0777C174.686 20.7926 175.051 19.6911 175.783 18.9568C176.514 18.0389 177.612 17.6717 178.892 17.6717C180.172 17.6717 181.086 18.0389 181.818 18.9568C182.55 19.6911 182.915 20.7926 182.915 22.0777ZM180.904 22.0777C180.904 21.3434 180.721 20.609 180.355 20.0583C179.989 19.324 179.441 19.1404 178.709 19.1404C177.978 19.1404 177.429 19.5075 177.063 20.0583C176.697 20.609 176.514 21.3434 176.514 22.0777C176.514 22.8121 176.697 23.5464 177.063 24.0972C177.429 24.8315 177.978 25.0151 178.709 25.0151C179.441 25.0151 179.989 24.6479 180.355 23.9136C180.721 23.5464 180.904 22.8121 180.904 22.0777Z" fill="white"/>
<path d="M192.974 26.3004H191.145V21.5272C191.145 20.0585 190.596 19.3242 189.499 19.3242C188.95 19.3242 188.585 19.5078 188.219 19.8749C187.853 20.2421 187.67 20.7929 187.67 21.3436V26.3004H185.841V20.2421C185.841 19.5078 185.841 18.7734 185.841 17.8555H187.487V19.1406C187.67 18.7734 188.036 18.4063 188.402 18.0391C188.95 17.6719 189.499 17.4883 190.048 17.4883C190.779 17.4883 191.511 17.6719 192.059 18.2227C192.791 18.7734 192.974 19.6914 192.974 20.9764V26.3004Z" fill="white"/>
<path d="M205.41 19.3239H203.398V23.3628C203.398 24.4643 203.764 24.8315 204.495 24.8315C204.861 24.8315 205.044 24.8315 205.41 24.8315V26.3001C205.044 26.4837 204.495 26.4837 203.947 26.4837C203.215 26.4837 202.666 26.3001 202.301 25.7494C201.935 25.3822 201.752 24.4643 201.752 23.5464V19.3239H200.472V17.8552H201.752V16.3866L203.581 15.8358V17.8552H205.593V19.3239H205.41Z" fill="white"/>
<path d="M215.285 26.3002H213.456V21.527C213.456 20.0583 212.908 19.324 211.811 19.324C210.896 19.324 210.348 19.6911 209.982 20.609C209.982 20.7926 209.982 20.9762 209.982 21.3434V26.3002H208.153V14H209.982V19.1404C210.53 18.2224 211.445 17.6717 212.542 17.6717C213.274 17.6717 214.005 17.8553 214.371 18.406C214.92 18.9568 215.285 20.0583 215.285 21.1598V26.3002Z" fill="white"/>
<path d="M225.344 21.7107C225.344 22.0779 225.344 22.2615 225.344 22.6287H219.857C219.857 23.5466 220.223 24.0973 220.589 24.4645C221.138 24.8317 221.686 25.0153 222.418 25.0153C223.332 25.0153 224.064 24.8317 224.612 24.6481L224.978 25.9332C224.247 26.3004 223.332 26.4839 222.235 26.4839C220.955 26.4839 219.857 26.1168 219.126 25.3824C218.394 24.6481 218.029 23.5466 218.029 22.2615C218.029 20.9764 218.394 19.8749 219.126 19.1406C219.857 18.2226 220.772 17.8555 222.052 17.8555C223.332 17.8555 224.247 18.2226 224.795 19.1406C225.161 19.6913 225.344 20.6092 225.344 21.7107ZM223.698 21.16C223.698 20.6092 223.515 20.0585 223.332 19.6913C222.966 19.1406 222.601 18.957 221.869 18.957C221.32 18.957 220.772 19.1406 220.406 19.6913C220.04 20.0585 219.857 20.6092 219.857 21.16H223.698Z" fill="white"/>
</svg>
