<svg width="117" height="149" viewBox="0 0 117 149" fill="none" xmlns="http://www.w3.org/2000/svg">
<path d="M66 105.611C66 104.025 65.0619 102.588 63.6091 101.949L5.6091 76.4646C2.96568 75.3031 0 77.2393 0 80.1267V116.488C0 118.075 0.938087 119.512 2.39091 120.151L60.3909 145.635C63.0343 146.797 66 144.861 66 141.973V105.611Z" fill="#FEB200"/>
<path d="M117 31.6114C117 30.0245 116.062 28.5877 114.609 27.9493L56.6091 2.46459C53.9657 1.30309 51 3.23933 51 6.12667V42.4885C51 44.0754 51.9381 45.5122 53.3909 46.1505L111.391 71.6353C114.034 72.7968 117 70.8605 117 67.9732V31.6114Z" fill="#512EA6"/>
</svg>
