<svg width="105" height="33" viewBox="0 0 105 33" fill="none" xmlns="http://www.w3.org/2000/svg">
<path d="M93 26C98.5228 26 103 21.5228 103 16C103 10.4772 98.5228 6 93 6C87.4772 6 83 10.4772 83 16C83 21.5228 87.4772 26 93 26Z" stroke="white" stroke-width="1.5" stroke-linecap="round" stroke-linejoin="round"/>
<path d="M89 7H90C88.05 12.84 88.05 19.16 90 25H89" stroke="white" stroke-width="1.5" stroke-linecap="round" stroke-linejoin="round"/>
<path d="M96 7C97.95 12.84 97.95 19.16 96 25" stroke="white" stroke-width="1.5" stroke-linecap="round" stroke-linejoin="round"/>
<path d="M84 20V19C89.84 20.95 96.16 20.95 102 19V20" stroke="white" stroke-width="1.5" stroke-linecap="round" stroke-linejoin="round"/>
<path d="M84 13C89.84 11.05 96.16 11.05 102 13" stroke="white" stroke-width="1.5" stroke-linecap="round" stroke-linejoin="round"/>
<path d="M37.3 22.92C36.5667 22.92 35.8867 22.7333 35.26 22.36C34.6333 21.9733 34.1333 21.46 33.76 20.82C33.3867 20.1667 33.2 19.46 33.2 18.7V17.06C33.2 16.2733 33.38 15.56 33.74 14.92C34.1133 14.2667 34.62 13.76 35.26 13.4C35.9 13.0267 36.62 12.84 37.42 12.84H41.84V17.42L41.6 19.5C41.2667 20.5667 40.7467 21.4067 40.04 22.02C39.3467 22.62 38.4333 22.92 37.3 22.92ZM37.3 21C37.8333 21 38.3267 20.8933 38.78 20.68C39.2467 20.4533 39.6267 20.1467 39.92 19.76V17.06V14.76H37.42C36.98 14.76 36.5867 14.86 36.24 15.06C35.8933 15.2467 35.62 15.52 35.42 15.88C35.2333 16.2267 35.14 16.62 35.14 17.06V18.7C35.14 19.1133 35.2333 19.5 35.42 19.86C35.62 20.2067 35.8867 20.4867 36.22 20.7C36.5533 20.9 36.9133 21 37.3 21ZM43.34 23C42.6867 23 42.1 22.8533 41.58 22.56C41.0733 22.2533 40.6667 21.84 40.36 21.32C40.0667 20.7867 39.92 20.2 39.92 19.56V17.44H41.84V19.56C41.84 20 41.98 20.36 42.26 20.64C42.54 20.92 42.9 21.06 43.34 21.06H43.9V23H43.34ZM35.98 11.08C35.6467 11.08 35.36 10.9667 35.12 10.74C34.8933 10.5 34.78 10.2133 34.78 9.88C34.78 9.56 34.8933 9.28667 35.12 9.06C35.36 8.82 35.6467 8.7 35.98 8.7C36.3 8.7 36.5733 8.82 36.8 9.06C37.04 9.28667 37.16 9.56 37.16 9.88C37.16 10.2133 37.04 10.5 36.8 10.74C36.5733 10.9667 36.3 11.08 35.98 11.08ZM39.56 11.08C39.24 11.08 38.96 10.9667 38.72 10.74C38.48 10.5 38.36 10.2133 38.36 9.88C38.36 9.56 38.48 9.28667 38.72 9.06C38.96 8.82 39.24 8.7 39.56 8.7C39.8933 8.7 40.1733 8.82 40.4 9.06C40.64 9.28667 40.76 9.56 40.76 9.88C40.76 10.2133 40.64 10.5 40.4 10.74C40.1733 10.9667 39.8933 11.08 39.56 11.08ZM49.5769 10.96C49.2569 10.96 48.9769 10.8467 48.7369 10.62C48.4969 10.38 48.3769 10.0933 48.3769 9.76C48.3769 9.44 48.4969 9.16667 48.7369 8.94C48.9769 8.7 49.2569 8.58 49.5769 8.58C49.9102 8.58 50.1902 8.7 50.4169 8.94C50.6569 9.16667 50.7769 9.44 50.7769 9.76C50.7769 10.0933 50.6569 10.38 50.4169 10.62C50.1902 10.8467 49.9102 10.96 49.5769 10.96ZM56.2769 21.06V23H52.4769C51.9702 23 51.5035 22.9067 51.0769 22.72C50.6502 22.52 50.2769 22.2267 49.9569 21.84C49.1302 22.6133 48.2302 23 47.2569 23H43.7769V21.06H46.7969C47.0902 21.06 47.4502 21.0133 47.8769 20.92C48.3035 20.8267 48.6702 20.6933 48.9769 20.52L45.3969 15.46V13.98C46.2902 13.62 47.0969 13.3533 47.8169 13.18C48.5502 13.0067 49.3102 12.92 50.0969 12.92C50.9902 12.92 51.7702 13.04 52.4369 13.28C53.1169 13.5067 53.6369 13.84 53.9969 14.28C54.3702 14.7067 54.5569 15.22 54.5569 15.82C54.5569 16.1933 54.4835 16.6 54.3369 17.04C54.1235 17.64 53.8569 18.1667 53.5369 18.62C53.2169 19.06 52.8035 19.54 52.2969 20.06L51.7769 20.56C52.0435 20.72 52.3302 20.8467 52.6369 20.94C52.9569 21.02 53.2969 21.06 53.6569 21.06H56.2769ZM50.1769 19.64L50.5369 19.26C50.9102 18.86 51.2302 18.4667 51.4969 18.08C51.7769 17.68 52.0035 17.2333 52.1769 16.74L52.1969 16.68C52.2369 16.56 52.2702 16.44 52.2969 16.32C52.3235 16.2 52.3369 16.0867 52.3369 15.98C52.3369 15.58 52.1435 15.2733 51.7569 15.06C51.3702 14.8333 50.7969 14.72 50.0369 14.72C49.5702 14.72 49.0835 14.7733 48.5769 14.88C48.0835 14.9733 47.6102 15.1133 47.1569 15.3V15.42L50.1769 19.64ZM42.9569 22.68V21.38L43.7969 21.06V23L42.9569 22.68ZM56.8197 21.06C57.3664 21.06 57.7597 20.9133 57.9997 20.62C58.253 20.3133 58.3797 19.9067 58.3797 19.4V9.08H60.3197V18.7C60.3197 19.8067 60.053 20.8 59.5197 21.68C58.9997 22.56 58.093 23 56.7997 23H56.1397V21.06H56.8197ZM61.6197 23C61.033 23 60.493 22.8267 59.9997 22.48C59.5064 22.1333 59.113 21.6933 58.8197 21.16C58.5397 20.6133 58.3997 20.0733 58.3997 19.54L58.3797 9.08H60.2997V19.4C60.2997 19.9067 60.4264 20.3133 60.6797 20.62C60.9464 20.9133 61.3464 21.06 61.8797 21.06H62.5597V23H61.6197ZM55.3397 22.68V21.38L56.1797 21.06V23L55.3397 22.68ZM62.4292 21.06H63.6292C63.8692 21.06 64.0759 20.98 64.2492 20.82C64.4226 20.66 64.5092 20.4267 64.5092 20.12V9.08H66.4492V20.78C66.4492 21.1933 66.3492 21.5733 66.1492 21.92C65.9492 22.2533 65.6826 22.52 65.3492 22.72C65.0159 22.9067 64.6426 23 64.2292 23H62.4292V21.06ZM61.6092 22.68V21.38L62.4492 21.06V23L61.6092 22.68ZM69.2408 23V9.08H71.1808V23H69.2408Z" fill="white"/>
<path d="M19.92 12.95L13.4 19.47C12.63 20.24 11.37 20.24 10.6 19.47L4.08 12.95" stroke="white" stroke-width="1.5" stroke-miterlimit="10" stroke-linecap="round" stroke-linejoin="round"/>
</svg>
